%TF.GenerationSoftware,KiCad,Pcbnew,7.0.9*%
%TF.CreationDate,2024-01-28T21:41:52+01:00*%
%TF.ProjectId,kim-1-RAM-ROM,6b696d2d-312d-4524-914d-2d524f4d2e6b,rev?*%
%TF.SameCoordinates,Original*%
%TF.FileFunction,Soldermask,Bot*%
%TF.FilePolarity,Negative*%
%FSLAX46Y46*%
G04 Gerber Fmt 4.6, Leading zero omitted, Abs format (unit mm)*
G04 Created by KiCad (PCBNEW 7.0.9) date 2024-01-28 21:41:52*
%MOMM*%
%LPD*%
G01*
G04 APERTURE LIST*
G04 Aperture macros list*
%AMFreePoly0*
4,1,22,-1.300000,3.270000,1.300000,3.270000,1.300000,-1.970000,1.280250,-2.195743,1.221600,-2.414626,1.125833,-2.620000,0.995858,-2.805624,0.835624,-2.965858,0.650000,-3.095833,0.444626,-3.191600,0.225743,-3.250250,0.000000,-3.270000,-0.225743,-3.250250,-0.444626,-3.191600,-0.650000,-3.095833,-0.835624,-2.965858,-0.995858,-2.805624,-1.125833,-2.620000,-1.221600,-2.414626,-1.280250,-2.195743,
-1.300000,-1.970000,-1.300000,3.270000,-1.300000,3.270000,$1*%
G04 Aperture macros list end*
%ADD10C,0.120000*%
%ADD11R,1.600000X2.400000*%
%ADD12O,1.600000X2.400000*%
%ADD13R,1.600000X1.600000*%
%ADD14O,1.600000X1.600000*%
%ADD15C,1.600000*%
%ADD16FreePoly0,180.000000*%
%ADD17R,1.700000X1.700000*%
%ADD18O,1.700000X1.700000*%
%ADD19R,1.440000X2.000000*%
%ADD20O,1.440000X2.000000*%
G04 APERTURE END LIST*
D10*
%TO.C,X1*%
X60840000Y-201520000D02*
X154080000Y-201520000D01*
X154080000Y-201520000D02*
X154080000Y-193940000D01*
X154080000Y-193940000D02*
X60840000Y-193940000D01*
X60840000Y-193940000D02*
X60840000Y-201520000D01*
G36*
X60840000Y-201520000D02*
G01*
X154080000Y-201520000D01*
X154080000Y-193940000D01*
X60840000Y-193940000D01*
X60840000Y-201520000D01*
G37*
%TD*%
D11*
%TO.C,U7*%
X144930000Y-148400000D03*
D12*
X147470000Y-148400000D03*
X150010000Y-148400000D03*
X152550000Y-148400000D03*
X155090000Y-148400000D03*
X157630000Y-148400000D03*
X160170000Y-148400000D03*
X160170000Y-140780000D03*
X157630000Y-140780000D03*
X155090000Y-140780000D03*
X152550000Y-140780000D03*
X150010000Y-140780000D03*
X147470000Y-140780000D03*
X144930000Y-140780000D03*
%TD*%
D13*
%TO.C,SW5*%
X147440000Y-158950000D03*
D14*
X149980000Y-158950000D03*
X152520000Y-158950000D03*
X155060000Y-158950000D03*
X157600000Y-158950000D03*
X157600000Y-151330000D03*
X155060000Y-151330000D03*
X152520000Y-151330000D03*
X149980000Y-151330000D03*
X147440000Y-151330000D03*
%TD*%
D15*
%TO.C,C12*%
X145080000Y-187390000D03*
X150080000Y-187390000D03*
%TD*%
%TO.C,R2*%
X152630000Y-179770000D03*
D14*
X152630000Y-187390000D03*
%TD*%
D11*
%TO.C,U11*%
X99440000Y-187810000D03*
D12*
X101980000Y-187810000D03*
X104520000Y-187810000D03*
X107060000Y-187810000D03*
X109600000Y-187810000D03*
X112140000Y-187810000D03*
X114680000Y-187810000D03*
X117220000Y-187810000D03*
X119760000Y-187810000D03*
X122300000Y-187810000D03*
X122300000Y-180190000D03*
X119760000Y-180190000D03*
X117220000Y-180190000D03*
X114680000Y-180190000D03*
X112140000Y-180190000D03*
X109600000Y-180190000D03*
X107060000Y-180190000D03*
X104520000Y-180190000D03*
X101980000Y-180190000D03*
X99440000Y-180190000D03*
%TD*%
D11*
%TO.C,U9*%
X117220000Y-176950000D03*
D12*
X119760000Y-176950000D03*
X122300000Y-176950000D03*
X124840000Y-176950000D03*
X127380000Y-176950000D03*
X129920000Y-176950000D03*
X132460000Y-176950000D03*
X132460000Y-169330000D03*
X129920000Y-169330000D03*
X127380000Y-169330000D03*
X124840000Y-169330000D03*
X122300000Y-169330000D03*
X119760000Y-169330000D03*
X117220000Y-169330000D03*
%TD*%
D11*
%TO.C,U5*%
X119370000Y-124640000D03*
D12*
X121910000Y-124640000D03*
X124450000Y-124640000D03*
X126990000Y-124640000D03*
X129530000Y-124640000D03*
X132070000Y-124640000D03*
X134610000Y-124640000D03*
X137150000Y-124640000D03*
X137150000Y-117020000D03*
X134610000Y-117020000D03*
X132070000Y-117020000D03*
X129530000Y-117020000D03*
X126990000Y-117020000D03*
X124450000Y-117020000D03*
X121910000Y-117020000D03*
X119370000Y-117020000D03*
%TD*%
D15*
%TO.C,C8*%
X114150000Y-153800000D03*
X114150000Y-158800000D03*
%TD*%
D11*
%TO.C,U8*%
X117200000Y-161420000D03*
D12*
X119740000Y-161420000D03*
X122280000Y-161420000D03*
X124820000Y-161420000D03*
X127360000Y-161420000D03*
X129900000Y-161420000D03*
X132440000Y-161420000D03*
X134980000Y-161420000D03*
X134980000Y-153800000D03*
X132440000Y-153800000D03*
X129900000Y-153800000D03*
X127360000Y-153800000D03*
X124820000Y-153800000D03*
X122280000Y-153800000D03*
X119740000Y-153800000D03*
X117200000Y-153800000D03*
%TD*%
D16*
%TO.C,X1*%
X65880000Y-197460000D03*
X69840000Y-197460000D03*
X73800000Y-197460000D03*
X77760000Y-197460000D03*
X81720000Y-197460000D03*
X85680000Y-197460000D03*
X89640000Y-197460000D03*
X93600000Y-197460000D03*
X97560000Y-197460000D03*
X101520000Y-197460000D03*
X105480000Y-197460000D03*
X109440000Y-197460000D03*
X113400000Y-197460000D03*
X117360000Y-197460000D03*
X121320000Y-197460000D03*
X125280000Y-197460000D03*
X129240000Y-197460000D03*
X133200000Y-197460000D03*
X137160000Y-197460000D03*
X141120000Y-197460000D03*
X145080000Y-197460000D03*
X149040000Y-197460000D03*
%TD*%
D11*
%TO.C,U10*%
X67740000Y-187810000D03*
D12*
X70280000Y-187810000D03*
X72820000Y-187810000D03*
X75360000Y-187810000D03*
X77900000Y-187810000D03*
X80440000Y-187810000D03*
X82980000Y-187810000D03*
X85520000Y-187810000D03*
X88060000Y-187810000D03*
X90600000Y-187810000D03*
X90600000Y-180190000D03*
X88060000Y-180190000D03*
X85520000Y-180190000D03*
X82980000Y-180190000D03*
X80440000Y-180190000D03*
X77900000Y-180190000D03*
X75360000Y-180190000D03*
X72820000Y-180190000D03*
X70280000Y-180190000D03*
X67740000Y-180190000D03*
%TD*%
D13*
%TO.C,RN1*%
X132460000Y-165320000D03*
D14*
X129920000Y-165320000D03*
X127380000Y-165320000D03*
X124840000Y-165320000D03*
X122300000Y-165320000D03*
%TD*%
D15*
%TO.C,C10*%
X67740000Y-176990000D03*
X62740000Y-176990000D03*
%TD*%
D13*
%TO.C,D1*%
X137160000Y-177870000D03*
D14*
X137160000Y-185490000D03*
%TD*%
D15*
%TO.C,C13*%
X145080000Y-182390000D03*
X147580000Y-182390000D03*
%TD*%
%TO.C,C5*%
X119370000Y-114030000D03*
X124369901Y-114030000D03*
%TD*%
%TO.C,C1*%
X103830000Y-145620000D03*
X103830000Y-140620000D03*
%TD*%
D11*
%TO.C,U3*%
X68570000Y-124640000D03*
D12*
X71110000Y-124640000D03*
X73650000Y-124640000D03*
X76190000Y-124640000D03*
X78730000Y-124640000D03*
X81270000Y-124640000D03*
X83810000Y-124640000D03*
X86350000Y-124640000D03*
X86350000Y-117020000D03*
X83810000Y-117020000D03*
X81270000Y-117020000D03*
X78730000Y-117020000D03*
X76190000Y-117020000D03*
X73650000Y-117020000D03*
X71110000Y-117020000D03*
X68570000Y-117020000D03*
%TD*%
D17*
%TO.C,J2*%
X119370000Y-109460000D03*
D18*
X119370000Y-106920000D03*
X119370000Y-104380000D03*
X121910000Y-109460000D03*
X121910000Y-106920000D03*
X121910000Y-104380000D03*
X124450000Y-109460000D03*
X124450000Y-106920000D03*
X124450000Y-104380000D03*
X126990000Y-109460000D03*
X126990000Y-106920000D03*
X126990000Y-104380000D03*
X129530000Y-109460000D03*
X129530000Y-106920000D03*
X129530000Y-104380000D03*
X132070000Y-109460000D03*
X132070000Y-106920000D03*
X132070000Y-104380000D03*
X134610000Y-109460000D03*
X134610000Y-106920000D03*
X134610000Y-104380000D03*
X137150000Y-109460000D03*
X137150000Y-106920000D03*
X137150000Y-104380000D03*
%TD*%
D15*
%TO.C,C11*%
X96310000Y-180190000D03*
X96310000Y-185190000D03*
%TD*%
D19*
%TO.C,U2*%
X100780000Y-152190000D03*
D20*
X98240000Y-152190000D03*
X95700000Y-152190000D03*
X93160000Y-152190000D03*
X90620000Y-152190000D03*
X88080000Y-152190000D03*
X85540000Y-152190000D03*
X83000000Y-152190000D03*
X80460000Y-152190000D03*
X77920000Y-152190000D03*
X75380000Y-152190000D03*
X72840000Y-152190000D03*
X70300000Y-152190000D03*
X67760000Y-152190000D03*
X65220000Y-152190000D03*
X62680000Y-152190000D03*
X62680000Y-167430000D03*
X65220000Y-167430000D03*
X67760000Y-167430000D03*
X70300000Y-167430000D03*
X72840000Y-167430000D03*
X75380000Y-167430000D03*
X77920000Y-167430000D03*
X80460000Y-167430000D03*
X83000000Y-167430000D03*
X85540000Y-167430000D03*
X88080000Y-167430000D03*
X90620000Y-167430000D03*
X93160000Y-167430000D03*
X95700000Y-167430000D03*
X98240000Y-167430000D03*
X100780000Y-167430000D03*
%TD*%
D13*
%TO.C,SW2*%
X86350000Y-97780000D03*
D14*
X88890000Y-97780000D03*
X91430000Y-97780000D03*
X91430000Y-90160000D03*
X88890000Y-90160000D03*
X86350000Y-90160000D03*
%TD*%
D15*
%TO.C,C4*%
X93970000Y-114040000D03*
X98970000Y-114040000D03*
%TD*%
D11*
%TO.C,U4*%
X93970000Y-124640000D03*
D12*
X96510000Y-124640000D03*
X99050000Y-124640000D03*
X101590000Y-124640000D03*
X104130000Y-124640000D03*
X106670000Y-124640000D03*
X109210000Y-124640000D03*
X111750000Y-124640000D03*
X111750000Y-117020000D03*
X109210000Y-117020000D03*
X106670000Y-117020000D03*
X104130000Y-117020000D03*
X101590000Y-117020000D03*
X99050000Y-117020000D03*
X96510000Y-117020000D03*
X93970000Y-117020000D03*
%TD*%
D13*
%TO.C,RN3*%
X66600000Y-127830000D03*
D14*
X64060000Y-127830000D03*
X61520000Y-127830000D03*
X58980000Y-127830000D03*
%TD*%
D17*
%TO.C,J1*%
X99050000Y-109460000D03*
D18*
X99050000Y-106920000D03*
X99050000Y-104380000D03*
X101590000Y-109460000D03*
X101590000Y-106920000D03*
X101590000Y-104380000D03*
X104130000Y-109460000D03*
X104130000Y-106920000D03*
X104130000Y-104380000D03*
X106670000Y-109460000D03*
X106670000Y-106920000D03*
X106670000Y-104380000D03*
X109210000Y-109460000D03*
X109210000Y-106920000D03*
X109210000Y-104380000D03*
X111750000Y-109460000D03*
X111750000Y-106920000D03*
X111750000Y-104380000D03*
%TD*%
D15*
%TO.C,C3*%
X68570000Y-114040000D03*
X73570000Y-114040000D03*
%TD*%
D11*
%TO.C,U1*%
X100780000Y-131090000D03*
D12*
X98240000Y-131090000D03*
X95700000Y-131090000D03*
X93160000Y-131090000D03*
X90620000Y-131090000D03*
X88080000Y-131090000D03*
X85540000Y-131090000D03*
X83000000Y-131090000D03*
X80460000Y-131090000D03*
X77920000Y-131090000D03*
X75380000Y-131090000D03*
X72840000Y-131090000D03*
X70300000Y-131090000D03*
X67760000Y-131090000D03*
X65220000Y-131090000D03*
X62680000Y-131090000D03*
X62680000Y-146330000D03*
X65220000Y-146330000D03*
X67760000Y-146330000D03*
X70300000Y-146330000D03*
X72840000Y-146330000D03*
X75380000Y-146330000D03*
X77920000Y-146330000D03*
X80460000Y-146330000D03*
X83000000Y-146330000D03*
X85540000Y-146330000D03*
X88080000Y-146330000D03*
X90620000Y-146330000D03*
X93160000Y-146330000D03*
X95700000Y-146330000D03*
X98240000Y-146330000D03*
X100780000Y-146330000D03*
%TD*%
D11*
%TO.C,U6*%
X117220000Y-139980000D03*
D12*
X119760000Y-139980000D03*
X122300000Y-139980000D03*
X124840000Y-139980000D03*
X127380000Y-139980000D03*
X129920000Y-139980000D03*
X132460000Y-139980000D03*
X132460000Y-132360000D03*
X129920000Y-132360000D03*
X127380000Y-132360000D03*
X124840000Y-132360000D03*
X122300000Y-132360000D03*
X119760000Y-132360000D03*
X117220000Y-132360000D03*
%TD*%
D15*
%TO.C,C7*%
X141850000Y-140780000D03*
X136850000Y-140780000D03*
%TD*%
D13*
%TO.C,SW1*%
X63150000Y-108920000D03*
D14*
X65690000Y-108920000D03*
X65690000Y-101300000D03*
X63150000Y-101300000D03*
%TD*%
D15*
%TO.C,C6*%
X114170000Y-132360000D03*
X114170000Y-137360000D03*
%TD*%
D13*
%TO.C,SW4*%
X119370000Y-97780000D03*
D14*
X121910000Y-97780000D03*
X124450000Y-97780000D03*
X126990000Y-97780000D03*
X129530000Y-97780000D03*
X132070000Y-97780000D03*
X134610000Y-97780000D03*
X137150000Y-97780000D03*
X137150000Y-90160000D03*
X134610000Y-90160000D03*
X132070000Y-90160000D03*
X129530000Y-90160000D03*
X126990000Y-90160000D03*
X124450000Y-90160000D03*
X121910000Y-90160000D03*
X119370000Y-90160000D03*
%TD*%
D15*
%TO.C,C9*%
X114170000Y-169330000D03*
X114170000Y-174330000D03*
%TD*%
D17*
%TO.C,J3*%
X139690000Y-191050000D03*
D18*
X137150000Y-191050000D03*
X139690000Y-188510000D03*
X137150000Y-188510000D03*
%TD*%
D13*
%TO.C,RN2*%
X114680000Y-129230000D03*
D14*
X117220000Y-129230000D03*
X119760000Y-129230000D03*
X122300000Y-129230000D03*
%TD*%
D15*
%TO.C,C2*%
X100780000Y-173340000D03*
X105780000Y-173340000D03*
%TD*%
D13*
%TO.C,D2*%
X139700000Y-177870000D03*
D14*
X139700000Y-185490000D03*
%TD*%
D13*
%TO.C,SW3*%
X99050000Y-97780000D03*
D14*
X101590000Y-97780000D03*
X104130000Y-97780000D03*
X106670000Y-97780000D03*
X109210000Y-97780000D03*
X111750000Y-97780000D03*
X111750000Y-90160000D03*
X109210000Y-90160000D03*
X106670000Y-90160000D03*
X104130000Y-90160000D03*
X101590000Y-90160000D03*
X99050000Y-90160000D03*
%TD*%
D15*
%TO.C,R1*%
X137450000Y-173930000D03*
D14*
X145070000Y-173930000D03*
%TD*%
M02*
