%TF.GenerationSoftware,KiCad,Pcbnew,7.0.9*%
%TF.CreationDate,2023-11-18T14:26:47+01:00*%
%TF.ProjectId,kim-1-RAM-ROM,6b696d2d-312d-4524-914d-2d524f4d2e6b,rev?*%
%TF.SameCoordinates,Original*%
%TF.FileFunction,Copper,L1,Top*%
%TF.FilePolarity,Positive*%
%FSLAX46Y46*%
G04 Gerber Fmt 4.6, Leading zero omitted, Abs format (unit mm)*
G04 Created by KiCad (PCBNEW 7.0.9) date 2023-11-18 14:26:47*
%MOMM*%
%LPD*%
G01*
G04 APERTURE LIST*
G04 Aperture macros list*
%AMFreePoly0*
4,1,22,-1.300000,3.270000,1.300000,3.270000,1.300000,-1.970000,1.280250,-2.195743,1.221600,-2.414626,1.125833,-2.620000,0.995858,-2.805624,0.835624,-2.965858,0.650000,-3.095833,0.444626,-3.191600,0.225743,-3.250250,0.000000,-3.270000,-0.225743,-3.250250,-0.444626,-3.191600,-0.650000,-3.095833,-0.835624,-2.965858,-0.995858,-2.805624,-1.125833,-2.620000,-1.221600,-2.414626,-1.280250,-2.195743,
-1.300000,-1.970000,-1.300000,3.270000,-1.300000,3.270000,$1*%
G04 Aperture macros list end*
%TA.AperFunction,ComponentPad*%
%ADD10R,1.600000X2.400000*%
%TD*%
%TA.AperFunction,ComponentPad*%
%ADD11O,1.600000X2.400000*%
%TD*%
%TA.AperFunction,ComponentPad*%
%ADD12R,1.600000X1.600000*%
%TD*%
%TA.AperFunction,ComponentPad*%
%ADD13O,1.600000X1.600000*%
%TD*%
%TA.AperFunction,ComponentPad*%
%ADD14C,1.600000*%
%TD*%
%TA.AperFunction,ConnectorPad*%
%ADD15FreePoly0,180.000000*%
%TD*%
%TA.AperFunction,ComponentPad*%
%ADD16R,1.700000X1.700000*%
%TD*%
%TA.AperFunction,ComponentPad*%
%ADD17O,1.700000X1.700000*%
%TD*%
%TA.AperFunction,ComponentPad*%
%ADD18R,1.440000X2.000000*%
%TD*%
%TA.AperFunction,ComponentPad*%
%ADD19O,1.440000X2.000000*%
%TD*%
%TA.AperFunction,ViaPad*%
%ADD20C,1.600000*%
%TD*%
%TA.AperFunction,ViaPad*%
%ADD21C,1.200000*%
%TD*%
%TA.AperFunction,ViaPad*%
%ADD22C,0.600000*%
%TD*%
%TA.AperFunction,ViaPad*%
%ADD23C,0.800000*%
%TD*%
%TA.AperFunction,Conductor*%
%ADD24C,0.250000*%
%TD*%
%TA.AperFunction,Conductor*%
%ADD25C,1.600000*%
%TD*%
%TA.AperFunction,Conductor*%
%ADD26C,0.500000*%
%TD*%
G04 APERTURE END LIST*
D10*
%TO.P,U1,1*%
%TO.N,Net-(D1-K)*%
X144900000Y-147650000D03*
D11*
%TO.P,U1,2*%
%TO.N,Net-(U10-OE)*%
X147440000Y-147650000D03*
%TO.P,U1,3*%
%TO.N,Net-(U1-Pad3)*%
X149980000Y-147650000D03*
%TO.P,U1,4*%
%TO.N,Net-(D2-K)*%
X152520000Y-147650000D03*
%TO.P,U1,5*%
%TO.N,GND*%
X155060000Y-147650000D03*
%TO.P,U1,6*%
%TO.N,unconnected-(U1-Pad6)*%
X157600000Y-147650000D03*
%TO.P,U1,7,GND*%
%TO.N,GND*%
X160140000Y-147650000D03*
%TO.P,U1,8*%
%TO.N,unconnected-(U1-Pad8)*%
X160140000Y-140030000D03*
%TO.P,U1,9*%
%TO.N,GND*%
X157600000Y-140030000D03*
%TO.P,U1,10*%
%TO.N,Net-(U7-P3)*%
X155060000Y-140030000D03*
%TO.P,U1,11*%
%TO.N,/A15*%
X152520000Y-140030000D03*
%TO.P,U1,12*%
%TO.N,Net-(U1-Pad12)*%
X149980000Y-140030000D03*
%TO.P,U1,13*%
%TO.N,Net-(RN2-R3)*%
X147440000Y-140030000D03*
%TO.P,U1,14,VCC*%
%TO.N,+5V*%
X144900000Y-140030000D03*
%TD*%
D12*
%TO.P,SW1,1*%
%TO.N,Net-(D1-K)*%
X147440000Y-158950000D03*
D13*
%TO.P,SW1,2*%
%TO.N,Net-(RN1-R1)*%
X149980000Y-158950000D03*
%TO.P,SW1,3*%
%TO.N,Net-(RN1-R2)*%
X152520000Y-158950000D03*
%TO.P,SW1,4*%
%TO.N,Net-(RN1-R3)*%
X155060000Y-158950000D03*
%TO.P,SW1,5*%
%TO.N,Net-(RN1-R4)*%
X157600000Y-158950000D03*
%TO.P,SW1,6*%
%TO.N,Net-(U11-CS2)*%
X157600000Y-151330000D03*
%TO.P,SW1,7*%
X155060000Y-151330000D03*
%TO.P,SW1,8*%
X152520000Y-151330000D03*
%TO.P,SW1,9*%
X149980000Y-151330000D03*
%TO.P,SW1,10*%
X147440000Y-151330000D03*
%TD*%
D14*
%TO.P,C12,1*%
%TO.N,+5V*%
X145080000Y-187390000D03*
%TO.P,C12,2*%
%TO.N,GND*%
X150080000Y-187390000D03*
%TD*%
%TO.P,R2,1*%
%TO.N,Net-(D2-A)*%
X152630000Y-179770000D03*
D13*
%TO.P,R2,2*%
%TO.N,+5V*%
X152630000Y-187390000D03*
%TD*%
D10*
%TO.P,U4,1,G1*%
%TO.N,GND*%
X99440000Y-187810000D03*
D11*
%TO.P,U4,2,A0*%
%TO.N,/KIM_A8*%
X101980000Y-187810000D03*
%TO.P,U4,3,A1*%
%TO.N,/KIM_A9*%
X104520000Y-187810000D03*
%TO.P,U4,4,A2*%
%TO.N,/KIM_A10*%
X107060000Y-187810000D03*
%TO.P,U4,5,A3*%
%TO.N,/KIM_A11*%
X109600000Y-187810000D03*
%TO.P,U4,6,A4*%
%TO.N,/KIM_A12*%
X112140000Y-187810000D03*
%TO.P,U4,7,A5*%
%TO.N,/KIM_A13*%
X114680000Y-187810000D03*
%TO.P,U4,8,A6*%
%TO.N,/KIM_A14*%
X117220000Y-187810000D03*
%TO.P,U4,9,A7*%
%TO.N,/KIM_A15*%
X119760000Y-187810000D03*
%TO.P,U4,10,GND*%
%TO.N,GND*%
X122300000Y-187810000D03*
%TO.P,U4,11,Y7*%
%TO.N,/A15*%
X122300000Y-180190000D03*
%TO.P,U4,12,Y6*%
%TO.N,/A14*%
X119760000Y-180190000D03*
%TO.P,U4,13,Y5*%
%TO.N,/A13*%
X117220000Y-180190000D03*
%TO.P,U4,14,Y4*%
%TO.N,/A12*%
X114680000Y-180190000D03*
%TO.P,U4,15,Y3*%
%TO.N,/A11*%
X112140000Y-180190000D03*
%TO.P,U4,16,Y2*%
%TO.N,/A10*%
X109600000Y-180190000D03*
%TO.P,U4,17,Y1*%
%TO.N,/A9*%
X107060000Y-180190000D03*
%TO.P,U4,18,Y0*%
%TO.N,/A8*%
X104520000Y-180190000D03*
%TO.P,U4,19,G2*%
%TO.N,GND*%
X101980000Y-180190000D03*
%TO.P,U4,20,VCC*%
%TO.N,+5V*%
X99440000Y-180190000D03*
%TD*%
D10*
%TO.P,U2,1*%
%TO.N,/A13*%
X117220000Y-176950000D03*
D11*
%TO.P,U2,2*%
%TO.N,Net-(RN1-R3)*%
X119760000Y-176950000D03*
%TO.P,U2,3*%
%TO.N,Net-(U10-A13)*%
X122300000Y-176950000D03*
%TO.P,U2,4*%
%TO.N,/A15*%
X124840000Y-176950000D03*
%TO.P,U2,5*%
%TO.N,Net-(RN1-R1)*%
X127380000Y-176950000D03*
%TO.P,U2,6*%
%TO.N,Net-(U10-A15)*%
X129920000Y-176950000D03*
%TO.P,U2,7,GND*%
%TO.N,GND*%
X132460000Y-176950000D03*
%TO.P,U2,8*%
%TO.N,Net-(U10-A14)*%
X132460000Y-169330000D03*
%TO.P,U2,9*%
%TO.N,/A14*%
X129920000Y-169330000D03*
%TO.P,U2,10*%
%TO.N,Net-(RN1-R2)*%
X127380000Y-169330000D03*
%TO.P,U2,11*%
%TO.N,Net-(U10-A12)*%
X124840000Y-169330000D03*
%TO.P,U2,12*%
%TO.N,Net-(RN1-R4)*%
X122300000Y-169330000D03*
%TO.P,U2,13*%
%TO.N,/A12*%
X119760000Y-169330000D03*
%TO.P,U2,14,VCC*%
%TO.N,+5V*%
X117220000Y-169330000D03*
%TD*%
D10*
%TO.P,U7,1,Q0*%
%TO.N,Net-(U7-Q0)*%
X119370000Y-124640000D03*
D11*
%TO.P,U7,2,Q1*%
%TO.N,Net-(U7-Q1)*%
X121910000Y-124640000D03*
%TO.P,U7,3,Q2*%
%TO.N,Net-(U7-Q2)*%
X124450000Y-124640000D03*
%TO.P,U7,4,Q3*%
%TO.N,Net-(U7-Q3)*%
X126990000Y-124640000D03*
%TO.P,U7,5,Q4*%
%TO.N,Net-(U7-Q4)*%
X129530000Y-124640000D03*
%TO.P,U7,6,Q5*%
%TO.N,Net-(U7-Q5)*%
X132070000Y-124640000D03*
%TO.P,U7,7,Q6*%
%TO.N,Net-(U7-Q6)*%
X134610000Y-124640000D03*
%TO.P,U7,8,GND*%
%TO.N,GND*%
X137150000Y-124640000D03*
%TO.P,U7,9,Q7*%
%TO.N,Net-(U7-Q7)*%
X137150000Y-117020000D03*
%TO.P,U7,10,Q8*%
%TO.N,unconnected-(U7-Q8-Pad10)*%
X134610000Y-117020000D03*
%TO.P,U7,11,Q9*%
%TO.N,unconnected-(U7-Q9-Pad11)*%
X132070000Y-117020000D03*
%TO.P,U7,12,P3*%
%TO.N,Net-(U7-P3)*%
X129530000Y-117020000D03*
%TO.P,U7,13,P2*%
%TO.N,/A14*%
X126990000Y-117020000D03*
%TO.P,U7,14,P1*%
%TO.N,/A13*%
X124450000Y-117020000D03*
%TO.P,U7,15,P0*%
%TO.N,/A12*%
X121910000Y-117020000D03*
%TO.P,U7,16,VCC*%
%TO.N,+5V*%
X119370000Y-117020000D03*
%TD*%
D14*
%TO.P,C6,1*%
%TO.N,+5V*%
X114150000Y-153800000D03*
%TO.P,C6,2*%
%TO.N,GND*%
X114150000Y-158800000D03*
%TD*%
D10*
%TO.P,U6,1*%
%TO.N,/A3*%
X117200000Y-161420000D03*
D11*
%TO.P,U6,2*%
%TO.N,/A4*%
X119740000Y-161420000D03*
%TO.P,U6,3*%
%TO.N,/A5*%
X122280000Y-161420000D03*
%TO.P,U6,4*%
%TO.N,/A6*%
X124820000Y-161420000D03*
%TO.P,U6,5*%
%TO.N,/A7*%
X127360000Y-161420000D03*
%TO.P,U6,6*%
%TO.N,/A8*%
X129900000Y-161420000D03*
%TO.P,U6,7*%
%TO.N,/A9*%
X132440000Y-161420000D03*
%TO.P,U6,8,GND*%
%TO.N,GND*%
X134980000Y-161420000D03*
%TO.P,U6,9*%
%TO.N,Net-(U11-CS2)*%
X134980000Y-153800000D03*
%TO.P,U6,10*%
%TO.N,/A10*%
X132440000Y-153800000D03*
%TO.P,U6,11*%
%TO.N,/A11*%
X129900000Y-153800000D03*
%TO.P,U6,12*%
%TO.N,/A15*%
X127360000Y-153800000D03*
%TO.P,U6,13*%
%TO.N,/A14*%
X124820000Y-153800000D03*
%TO.P,U6,14*%
%TO.N,/A13*%
X122280000Y-153800000D03*
%TO.P,U6,15*%
%TO.N,/A12*%
X119740000Y-153800000D03*
%TO.P,U6,16,VCC*%
%TO.N,+5V*%
X117200000Y-153800000D03*
%TD*%
D15*
%TO.P,X1,1,SYNC*%
%TO.N,unconnected-(X1-SYNC-Pad1)*%
X65880000Y-197460000D03*
%TO.P,X1,2,~{RDY}*%
%TO.N,unconnected-(X1-~{RDY}-Pad2)*%
X69840000Y-197460000D03*
%TO.P,X1,3,\u00D81*%
%TO.N,unconnected-(X1-\u00D81-Pad3)*%
X73800000Y-197460000D03*
%TO.P,X1,4,~{IRQ}*%
%TO.N,unconnected-(X1-~{IRQ}-Pad4)*%
X77760000Y-197460000D03*
%TO.P,X1,5,R0*%
%TO.N,unconnected-(X1-R0-Pad5)*%
X81720000Y-197460000D03*
%TO.P,X1,6,~{NMI}*%
%TO.N,unconnected-(X1-~{NMI}-Pad6)*%
X85680000Y-197460000D03*
%TO.P,X1,7,~{RES}*%
%TO.N,unconnected-(X1-~{RES}-Pad7)*%
X89640000Y-197460000D03*
%TO.P,X1,8,D7*%
%TO.N,/D7*%
X93600000Y-197460000D03*
%TO.P,X1,9,D6*%
%TO.N,/D6*%
X97560000Y-197460000D03*
%TO.P,X1,10,D5*%
%TO.N,/D5*%
X101520000Y-197460000D03*
%TO.P,X1,11,D4*%
%TO.N,/D4*%
X105480000Y-197460000D03*
%TO.P,X1,12,D3*%
%TO.N,/D3*%
X109440000Y-197460000D03*
%TO.P,X1,13,D2*%
%TO.N,/D2*%
X113400000Y-197460000D03*
%TO.P,X1,14,D1*%
%TO.N,/D1*%
X117360000Y-197460000D03*
%TO.P,X1,15,D0*%
%TO.N,/D0*%
X121320000Y-197460000D03*
%TO.P,X1,16,K6*%
%TO.N,unconnected-(X1-K6-Pad16)*%
X125280000Y-197460000D03*
%TO.P,X1,17,SST*%
%TO.N,unconnected-(X1-SST-Pad17)*%
X129240000Y-197460000D03*
%TO.P,X1,18,+7.5V_RAW*%
%TO.N,unconnected-(X1-+7.5V_RAW-Pad18)*%
X133200000Y-197460000D03*
%TO.P,X1,19,~{VECTOR_FETCH}*%
%TO.N,/K7*%
X137160000Y-197460000D03*
%TO.P,X1,20,~{DECODE_ENABLE}*%
%TO.N,/~{DECEN}*%
X141120000Y-197460000D03*
%TO.P,X1,21,+5V*%
%TO.N,+5V*%
X145080000Y-197460000D03*
%TO.P,X1,22,GND*%
%TO.N,GND*%
X149040000Y-197460000D03*
%TD*%
D10*
%TO.P,U5,1,G1*%
%TO.N,GND*%
X67740000Y-187810000D03*
D11*
%TO.P,U5,2,A0*%
%TO.N,/KIM_A0*%
X70280000Y-187810000D03*
%TO.P,U5,3,A1*%
%TO.N,/KIM_A1*%
X72820000Y-187810000D03*
%TO.P,U5,4,A2*%
%TO.N,/KIM_A2*%
X75360000Y-187810000D03*
%TO.P,U5,5,A3*%
%TO.N,/KIM_A3*%
X77900000Y-187810000D03*
%TO.P,U5,6,A4*%
%TO.N,/KIM_A4*%
X80440000Y-187810000D03*
%TO.P,U5,7,A5*%
%TO.N,/KIM_A5*%
X82980000Y-187810000D03*
%TO.P,U5,8,A6*%
%TO.N,/KIM_A6*%
X85520000Y-187810000D03*
%TO.P,U5,9,A7*%
%TO.N,/KIM_A7*%
X88060000Y-187810000D03*
%TO.P,U5,10,GND*%
%TO.N,GND*%
X90600000Y-187810000D03*
%TO.P,U5,11,Y7*%
%TO.N,/A7*%
X90600000Y-180190000D03*
%TO.P,U5,12,Y6*%
%TO.N,/A6*%
X88060000Y-180190000D03*
%TO.P,U5,13,Y5*%
%TO.N,/A5*%
X85520000Y-180190000D03*
%TO.P,U5,14,Y4*%
%TO.N,/A4*%
X82980000Y-180190000D03*
%TO.P,U5,15,Y3*%
%TO.N,/A3*%
X80440000Y-180190000D03*
%TO.P,U5,16,Y2*%
%TO.N,/A2*%
X77900000Y-180190000D03*
%TO.P,U5,17,Y1*%
%TO.N,/A1*%
X75360000Y-180190000D03*
%TO.P,U5,18,Y0*%
%TO.N,/A0*%
X72820000Y-180190000D03*
%TO.P,U5,19,G2*%
%TO.N,GND*%
X70280000Y-180190000D03*
%TO.P,U5,20,VCC*%
%TO.N,+5V*%
X67740000Y-180190000D03*
%TD*%
D12*
%TO.P,RN1,1,common*%
%TO.N,+5V*%
X132460000Y-165190000D03*
D13*
%TO.P,RN1,2,R1*%
%TO.N,Net-(RN1-R1)*%
X129920000Y-165190000D03*
%TO.P,RN1,3,R2*%
%TO.N,Net-(RN1-R2)*%
X127380000Y-165190000D03*
%TO.P,RN1,4,R3*%
%TO.N,Net-(RN1-R3)*%
X124840000Y-165190000D03*
%TO.P,RN1,5,R4*%
%TO.N,Net-(RN1-R4)*%
X122300000Y-165190000D03*
%TD*%
D14*
%TO.P,C5,1*%
%TO.N,+5V*%
X67740000Y-176990000D03*
%TO.P,C5,2*%
%TO.N,GND*%
X62740000Y-176990000D03*
%TD*%
D12*
%TO.P,D1,1,K*%
%TO.N,Net-(D1-K)*%
X137160000Y-177870000D03*
D13*
%TO.P,D1,2,A*%
%TO.N,Net-(D1-A)*%
X137160000Y-185490000D03*
%TD*%
D14*
%TO.P,C13,1*%
%TO.N,+5V*%
X145080000Y-182390000D03*
%TO.P,C13,2*%
%TO.N,GND*%
X147580000Y-182390000D03*
%TD*%
%TO.P,C7,1*%
%TO.N,+5V*%
X119370000Y-114030000D03*
%TO.P,C7,2*%
%TO.N,GND*%
X124369901Y-114030000D03*
%TD*%
%TO.P,C11,1*%
%TO.N,+5V*%
X103830000Y-145620000D03*
%TO.P,C11,2*%
%TO.N,GND*%
X103830000Y-140620000D03*
%TD*%
D10*
%TO.P,U9,1,Q0*%
%TO.N,unconnected-(U9-Q0-Pad1)*%
X68570000Y-124640000D03*
D11*
%TO.P,U9,2,Q1*%
%TO.N,Net-(U9-Q1)*%
X71110000Y-124640000D03*
%TO.P,U9,3,Q2*%
X73650000Y-124640000D03*
%TO.P,U9,4,Q3*%
X76190000Y-124640000D03*
%TO.P,U9,5,Q4*%
X78730000Y-124640000D03*
%TO.P,U9,6,Q5*%
%TO.N,unconnected-(U9-Q5-Pad6)*%
X81270000Y-124640000D03*
%TO.P,U9,7,Q6*%
%TO.N,Net-(U9-Q6)*%
X83810000Y-124640000D03*
%TO.P,U9,8,GND*%
%TO.N,GND*%
X86350000Y-124640000D03*
%TO.P,U9,9,Q7*%
%TO.N,Net-(U9-Q6)*%
X86350000Y-117020000D03*
%TO.P,U9,10,Q8*%
%TO.N,unconnected-(U9-Q8-Pad10)*%
X83810000Y-117020000D03*
%TO.P,U9,11,Q9*%
%TO.N,unconnected-(U9-Q9-Pad11)*%
X81270000Y-117020000D03*
%TO.P,U9,12,P3*%
%TO.N,Net-(RN2-R3)*%
X78730000Y-117020000D03*
%TO.P,U9,13,P2*%
%TO.N,/A12*%
X76190000Y-117020000D03*
%TO.P,U9,14,P1*%
%TO.N,/A11*%
X73650000Y-117020000D03*
%TO.P,U9,15,P0*%
%TO.N,/A10*%
X71110000Y-117020000D03*
%TO.P,U9,16,VCC*%
%TO.N,+5V*%
X68570000Y-117020000D03*
%TD*%
D16*
%TO.P,J1,1,Pin_1*%
%TO.N,Net-(J1-Pin_1)*%
X119370000Y-109460000D03*
D17*
%TO.P,J1,2,Pin_2*%
%TO.N,Net-(J1-Pin_2)*%
X119370000Y-106920000D03*
%TO.P,J1,3,Pin_3*%
%TO.N,Net-(J1-Pin_12)*%
X119370000Y-104380000D03*
%TO.P,J1,4,Pin_4*%
%TO.N,Net-(J1-Pin_1)*%
X121910000Y-109460000D03*
%TO.P,J1,5,Pin_5*%
%TO.N,Net-(J1-Pin_5)*%
X121910000Y-106920000D03*
%TO.P,J1,6,Pin_6*%
%TO.N,Net-(J1-Pin_12)*%
X121910000Y-104380000D03*
%TO.P,J1,7,Pin_7*%
%TO.N,Net-(J1-Pin_1)*%
X124450000Y-109460000D03*
%TO.P,J1,8,Pin_8*%
%TO.N,Net-(J1-Pin_8)*%
X124450000Y-106920000D03*
%TO.P,J1,9,Pin_9*%
%TO.N,Net-(J1-Pin_12)*%
X124450000Y-104380000D03*
%TO.P,J1,10,Pin_10*%
%TO.N,Net-(J1-Pin_1)*%
X126990000Y-109460000D03*
%TO.P,J1,11,Pin_11*%
%TO.N,Net-(J1-Pin_11)*%
X126990000Y-106920000D03*
%TO.P,J1,12,Pin_12*%
%TO.N,Net-(J1-Pin_12)*%
X126990000Y-104380000D03*
%TO.P,J1,13,Pin_13*%
%TO.N,Net-(J1-Pin_1)*%
X129530000Y-109460000D03*
%TO.P,J1,14,Pin_14*%
%TO.N,Net-(J1-Pin_14)*%
X129530000Y-106920000D03*
%TO.P,J1,15,Pin_15*%
%TO.N,Net-(J1-Pin_12)*%
X129530000Y-104380000D03*
%TO.P,J1,16,Pin_16*%
%TO.N,Net-(J1-Pin_1)*%
X132070000Y-109460000D03*
%TO.P,J1,17,Pin_17*%
%TO.N,Net-(J1-Pin_17)*%
X132070000Y-106920000D03*
%TO.P,J1,18,Pin_18*%
%TO.N,Net-(J1-Pin_12)*%
X132070000Y-104380000D03*
%TO.P,J1,19,Pin_\u00BA9*%
%TO.N,Net-(J1-Pin_1)*%
X134610000Y-109460000D03*
%TO.P,J1,20,Pin_20*%
%TO.N,Net-(J1-Pin_20)*%
X134610000Y-106920000D03*
%TO.P,J1,21,Pin_21*%
%TO.N,Net-(J1-Pin_12)*%
X134610000Y-104380000D03*
%TO.P,J1,22,Pin_22*%
%TO.N,Net-(J1-Pin_1)*%
X137150000Y-109460000D03*
%TO.P,J1,23,Pin_23*%
%TO.N,Net-(J1-Pin_23)*%
X137150000Y-106920000D03*
%TO.P,J1,24,Pin_24*%
%TO.N,Net-(J1-Pin_12)*%
X137150000Y-104380000D03*
%TD*%
D14*
%TO.P,C4,1*%
%TO.N,+5V*%
X96310000Y-180190000D03*
%TO.P,C4,2*%
%TO.N,GND*%
X96310000Y-185190000D03*
%TD*%
D18*
%TO.P,U10,1,NC*%
%TO.N,unconnected-(U10-NC-Pad1)*%
X100780000Y-152190000D03*
D19*
%TO.P,U10,2,A16*%
%TO.N,Net-(RN3-R2)*%
X98240000Y-152190000D03*
%TO.P,U10,3,A15*%
%TO.N,Net-(U10-A15)*%
X95700000Y-152190000D03*
%TO.P,U10,4,A12*%
%TO.N,Net-(U10-A12)*%
X93160000Y-152190000D03*
%TO.P,U10,5,A7*%
%TO.N,/A7*%
X90620000Y-152190000D03*
%TO.P,U10,6,A6*%
%TO.N,/A6*%
X88080000Y-152190000D03*
%TO.P,U10,7,A5*%
%TO.N,/A5*%
X85540000Y-152190000D03*
%TO.P,U10,8,A4*%
%TO.N,/A4*%
X83000000Y-152190000D03*
%TO.P,U10,9,A3*%
%TO.N,/A3*%
X80460000Y-152190000D03*
%TO.P,U10,10,A2*%
%TO.N,/A2*%
X77920000Y-152190000D03*
%TO.P,U10,11,A1*%
%TO.N,/A1*%
X75380000Y-152190000D03*
%TO.P,U10,12,A0*%
%TO.N,/A0*%
X72840000Y-152190000D03*
%TO.P,U10,13,D0*%
%TO.N,/D0*%
X70300000Y-152190000D03*
%TO.P,U10,14,D1*%
%TO.N,/D1*%
X67760000Y-152190000D03*
%TO.P,U10,15,D2*%
%TO.N,/D2*%
X65220000Y-152190000D03*
%TO.P,U10,16,GND*%
%TO.N,GND*%
X62680000Y-152190000D03*
%TO.P,U10,17,D3*%
%TO.N,/D3*%
X62680000Y-167430000D03*
%TO.P,U10,18,D4*%
%TO.N,/D4*%
X65220000Y-167430000D03*
%TO.P,U10,19,D5*%
%TO.N,/D5*%
X67760000Y-167430000D03*
%TO.P,U10,20,D6*%
%TO.N,/D6*%
X70300000Y-167430000D03*
%TO.P,U10,21,D7*%
%TO.N,/D7*%
X72840000Y-167430000D03*
%TO.P,U10,22,CE*%
%TO.N,Net-(U10-CE)*%
X75380000Y-167430000D03*
%TO.P,U10,23,A10*%
%TO.N,/A10*%
X77920000Y-167430000D03*
%TO.P,U10,24,OE*%
%TO.N,Net-(U10-OE)*%
X80460000Y-167430000D03*
%TO.P,U10,25,A11*%
%TO.N,/A11*%
X83000000Y-167430000D03*
%TO.P,U10,26,A9*%
%TO.N,/A9*%
X85540000Y-167430000D03*
%TO.P,U10,27,A8*%
%TO.N,/A8*%
X88080000Y-167430000D03*
%TO.P,U10,28,A13*%
%TO.N,Net-(U10-A13)*%
X90620000Y-167430000D03*
%TO.P,U10,29,A14*%
%TO.N,Net-(U10-A14)*%
X93160000Y-167430000D03*
%TO.P,U10,30,A17*%
%TO.N,Net-(RN3-R3)*%
X95700000Y-167430000D03*
%TO.P,U10,31,PGM*%
%TO.N,+5V*%
X98240000Y-167430000D03*
%TO.P,U10,32,VCC*%
X100780000Y-167430000D03*
%TD*%
D12*
%TO.P,SW5,1*%
%TO.N,Net-(U9-Q1)*%
X83890000Y-97780000D03*
D13*
%TO.P,SW5,2*%
%TO.N,Net-(RN2-R2)*%
X83890000Y-90160000D03*
%TD*%
D14*
%TO.P,C8,1*%
%TO.N,+5V*%
X93970000Y-114040000D03*
%TO.P,C8,2*%
%TO.N,GND*%
X98970000Y-114040000D03*
%TD*%
D10*
%TO.P,U8,1,Q0*%
%TO.N,Net-(RN2-R3)*%
X93970000Y-124640000D03*
D11*
%TO.P,U8,2,Q1*%
X96510000Y-124640000D03*
%TO.P,U8,3,Q2*%
%TO.N,Net-(U8-Q2)*%
X99050000Y-124640000D03*
%TO.P,U8,4,Q3*%
%TO.N,Net-(U8-Q3)*%
X101590000Y-124640000D03*
%TO.P,U8,5,Q4*%
%TO.N,Net-(U8-Q4)*%
X104130000Y-124640000D03*
%TO.P,U8,6,Q5*%
%TO.N,Net-(U8-Q5)*%
X106670000Y-124640000D03*
%TO.P,U8,7,Q6*%
%TO.N,Net-(U8-Q6)*%
X109210000Y-124640000D03*
%TO.P,U8,8,GND*%
%TO.N,GND*%
X111750000Y-124640000D03*
%TO.P,U8,9,Q7*%
%TO.N,Net-(U8-Q7)*%
X111750000Y-117020000D03*
%TO.P,U8,10,Q8*%
%TO.N,unconnected-(U8-Q8-Pad10)*%
X109210000Y-117020000D03*
%TO.P,U8,11,Q9*%
%TO.N,unconnected-(U8-Q9-Pad11)*%
X106670000Y-117020000D03*
%TO.P,U8,12,P3*%
%TO.N,/A15*%
X104130000Y-117020000D03*
%TO.P,U8,13,P2*%
%TO.N,/A14*%
X101590000Y-117020000D03*
%TO.P,U8,14,P1*%
%TO.N,/A13*%
X99050000Y-117020000D03*
%TO.P,U8,15,P0*%
%TO.N,/A12*%
X96510000Y-117020000D03*
%TO.P,U8,16,VCC*%
%TO.N,+5V*%
X93970000Y-117020000D03*
%TD*%
D12*
%TO.P,RN3,1,common*%
%TO.N,+5V*%
X66600000Y-127830000D03*
D13*
%TO.P,RN3,2,R1*%
%TO.N,unconnected-(RN3-R1-Pad2)*%
X64060000Y-127830000D03*
%TO.P,RN3,3,R2*%
%TO.N,Net-(RN3-R2)*%
X61520000Y-127830000D03*
%TO.P,RN3,4,R3*%
%TO.N,Net-(RN3-R3)*%
X58980000Y-127830000D03*
%TD*%
D16*
%TO.P,J2,1,Pin_1*%
%TO.N,Net-(J1-Pin_1)*%
X99050000Y-109460000D03*
D17*
%TO.P,J2,2,Pin_2*%
%TO.N,Net-(J2-Pin_2)*%
X99050000Y-106920000D03*
%TO.P,J2,3,Pin_3*%
%TO.N,Net-(J1-Pin_12)*%
X99050000Y-104380000D03*
%TO.P,J2,4,Pin_4*%
%TO.N,Net-(J1-Pin_1)*%
X101590000Y-109460000D03*
%TO.P,J2,5,Pin_5*%
%TO.N,Net-(J2-Pin_5)*%
X101590000Y-106920000D03*
%TO.P,J2,6,Pin_6*%
%TO.N,Net-(J1-Pin_12)*%
X101590000Y-104380000D03*
%TO.P,J2,7,Pin_7*%
%TO.N,Net-(J1-Pin_1)*%
X104130000Y-109460000D03*
%TO.P,J2,8,Pin_8*%
%TO.N,Net-(J2-Pin_8)*%
X104130000Y-106920000D03*
%TO.P,J2,9,Pin_9*%
%TO.N,Net-(J1-Pin_12)*%
X104130000Y-104380000D03*
%TO.P,J2,10,Pin_10*%
%TO.N,Net-(J1-Pin_1)*%
X106670000Y-109460000D03*
%TO.P,J2,11,Pin_11*%
%TO.N,Net-(J2-Pin_11)*%
X106670000Y-106920000D03*
%TO.P,J2,12,Pin_12*%
%TO.N,Net-(J1-Pin_12)*%
X106670000Y-104380000D03*
%TO.P,J2,13,Pin_13*%
%TO.N,Net-(J1-Pin_1)*%
X109210000Y-109460000D03*
%TO.P,J2,14,Pin_14*%
%TO.N,Net-(J2-Pin_14)*%
X109210000Y-106920000D03*
%TO.P,J2,15,Pin_15*%
%TO.N,Net-(J1-Pin_12)*%
X109210000Y-104380000D03*
%TO.P,J2,16,Pin_16*%
%TO.N,Net-(J1-Pin_1)*%
X111750000Y-109460000D03*
%TO.P,J2,17,Pin_17*%
%TO.N,Net-(J2-Pin_17)*%
X111750000Y-106920000D03*
%TO.P,J2,18,Pin_18*%
%TO.N,Net-(J1-Pin_12)*%
X111750000Y-104380000D03*
%TD*%
D14*
%TO.P,C9,1*%
%TO.N,+5V*%
X68570000Y-114040000D03*
%TO.P,C9,2*%
%TO.N,GND*%
X73570000Y-114040000D03*
%TD*%
D10*
%TO.P,U11,1,NC*%
%TO.N,unconnected-(U11-NC-Pad1)*%
X100780000Y-131090000D03*
D11*
%TO.P,U11,2,A16*%
%TO.N,GND*%
X98240000Y-131090000D03*
%TO.P,U11,3,A14*%
%TO.N,/A14*%
X95700000Y-131090000D03*
%TO.P,U11,4,A12*%
%TO.N,/A12*%
X93160000Y-131090000D03*
%TO.P,U11,5,A7*%
%TO.N,/A7*%
X90620000Y-131090000D03*
%TO.P,U11,6,A6*%
%TO.N,/A6*%
X88080000Y-131090000D03*
%TO.P,U11,7,A5*%
%TO.N,/A5*%
X85540000Y-131090000D03*
%TO.P,U11,8,A4*%
%TO.N,/A4*%
X83000000Y-131090000D03*
%TO.P,U11,9,A3*%
%TO.N,/A3*%
X80460000Y-131090000D03*
%TO.P,U11,10,A2*%
%TO.N,/A2*%
X77920000Y-131090000D03*
%TO.P,U11,11,A1*%
%TO.N,/A1*%
X75380000Y-131090000D03*
%TO.P,U11,12,A0*%
%TO.N,/A0*%
X72840000Y-131090000D03*
%TO.P,U11,13,Q0*%
%TO.N,/D0*%
X70300000Y-131090000D03*
%TO.P,U11,14,Q1*%
%TO.N,/D1*%
X67760000Y-131090000D03*
%TO.P,U11,15,Q2*%
%TO.N,/D2*%
X65220000Y-131090000D03*
%TO.P,U11,16,GND*%
%TO.N,GND*%
X62680000Y-131090000D03*
%TO.P,U11,17,Q3*%
%TO.N,/D3*%
X62680000Y-146330000D03*
%TO.P,U11,18,Q4*%
%TO.N,/D4*%
X65220000Y-146330000D03*
%TO.P,U11,19,Q5*%
%TO.N,/D5*%
X67760000Y-146330000D03*
%TO.P,U11,20,Q6*%
%TO.N,/D6*%
X70300000Y-146330000D03*
%TO.P,U11,21,Q7*%
%TO.N,/D7*%
X72840000Y-146330000D03*
%TO.P,U11,22,~{CS1}*%
%TO.N,Net-(U11-~{CS1})*%
X75380000Y-146330000D03*
%TO.P,U11,23,A10*%
%TO.N,/A10*%
X77920000Y-146330000D03*
%TO.P,U11,24,~{OE}*%
%TO.N,GND*%
X80460000Y-146330000D03*
%TO.P,U11,25,A11*%
%TO.N,/A11*%
X83000000Y-146330000D03*
%TO.P,U11,26,A9*%
%TO.N,/A9*%
X85540000Y-146330000D03*
%TO.P,U11,27,A8*%
%TO.N,/A8*%
X88080000Y-146330000D03*
%TO.P,U11,28,A13*%
%TO.N,/A13*%
X90620000Y-146330000D03*
%TO.P,U11,29,~{WE}*%
%TO.N,/R{slash}~{W}*%
X93160000Y-146330000D03*
%TO.P,U11,30,CS2*%
%TO.N,Net-(U11-CS2)*%
X95700000Y-146330000D03*
%TO.P,U11,31,A15*%
%TO.N,/A15*%
X98240000Y-146330000D03*
%TO.P,U11,32,VCC*%
%TO.N,+5V*%
X100780000Y-146330000D03*
%TD*%
D10*
%TO.P,U3,1*%
%TO.N,Net-(RN2-R2)*%
X117220000Y-145060000D03*
D11*
%TO.P,U3,2*%
%TO.N,Net-(J1-Pin_12)*%
X119760000Y-145060000D03*
%TO.P,U3,3*%
%TO.N,Net-(U11-~{CS1})*%
X122300000Y-145060000D03*
%TO.P,U3,4*%
%TO.N,Net-(U3-Pad4)*%
X124840000Y-145060000D03*
%TO.P,U3,5*%
%TO.N,Net-(U11-CS2)*%
X127380000Y-145060000D03*
%TO.P,U3,6*%
%TO.N,Net-(U10-CE)*%
X129920000Y-145060000D03*
%TO.P,U3,7,GND*%
%TO.N,GND*%
X132460000Y-145060000D03*
%TO.P,U3,8*%
%TO.N,Net-(U3-Pad4)*%
X132460000Y-137440000D03*
%TO.P,U3,9*%
%TO.N,Net-(J1-Pin_1)*%
X129920000Y-137440000D03*
%TO.P,U3,10*%
%TO.N,Net-(RN2-R1)*%
X127380000Y-137440000D03*
%TO.P,U3,11*%
%TO.N,Net-(U1-Pad3)*%
X124840000Y-137440000D03*
%TO.P,U3,12*%
%TO.N,Net-(U1-Pad12)*%
X122300000Y-137440000D03*
%TO.P,U3,13*%
%TO.N,Net-(RN2-R1)*%
X119760000Y-137440000D03*
%TO.P,U3,14,VCC*%
%TO.N,+5V*%
X117220000Y-137440000D03*
%TD*%
D14*
%TO.P,C1,1*%
%TO.N,+5V*%
X141850000Y-140030000D03*
%TO.P,C1,2*%
%TO.N,GND*%
X141850000Y-145030000D03*
%TD*%
D12*
%TO.P,SW6,1*%
%TO.N,Net-(RN3-R3)*%
X63150000Y-108920000D03*
D13*
%TO.P,SW6,2*%
%TO.N,Net-(RN3-R2)*%
X65690000Y-108920000D03*
%TO.P,SW6,3*%
%TO.N,GND*%
X65690000Y-101300000D03*
%TO.P,SW6,4*%
X63150000Y-101300000D03*
%TD*%
D14*
%TO.P,C3,1*%
%TO.N,+5V*%
X114170000Y-137440000D03*
%TO.P,C3,2*%
%TO.N,GND*%
X114170000Y-142440000D03*
%TD*%
D12*
%TO.P,SW2,1*%
%TO.N,Net-(J1-Pin_2)*%
X119370000Y-97780000D03*
D13*
%TO.P,SW2,2*%
%TO.N,Net-(J1-Pin_5)*%
X121910000Y-97780000D03*
%TO.P,SW2,3*%
%TO.N,Net-(J1-Pin_8)*%
X124450000Y-97780000D03*
%TO.P,SW2,4*%
%TO.N,Net-(J1-Pin_11)*%
X126990000Y-97780000D03*
%TO.P,SW2,5*%
%TO.N,Net-(J1-Pin_14)*%
X129530000Y-97780000D03*
%TO.P,SW2,6*%
%TO.N,Net-(J1-Pin_17)*%
X132070000Y-97780000D03*
%TO.P,SW2,7*%
%TO.N,Net-(J1-Pin_20)*%
X134610000Y-97780000D03*
%TO.P,SW2,8*%
%TO.N,Net-(J1-Pin_23)*%
X137150000Y-97780000D03*
%TO.P,SW2,9*%
%TO.N,Net-(U7-Q7)*%
X137150000Y-90160000D03*
%TO.P,SW2,10*%
%TO.N,Net-(U7-Q6)*%
X134610000Y-90160000D03*
%TO.P,SW2,11*%
%TO.N,Net-(U7-Q5)*%
X132070000Y-90160000D03*
%TO.P,SW2,12*%
%TO.N,Net-(U7-Q4)*%
X129530000Y-90160000D03*
%TO.P,SW2,13*%
%TO.N,Net-(U7-Q3)*%
X126990000Y-90160000D03*
%TO.P,SW2,14*%
%TO.N,Net-(U7-Q2)*%
X124450000Y-90160000D03*
%TO.P,SW2,15*%
%TO.N,Net-(U7-Q1)*%
X121910000Y-90160000D03*
%TO.P,SW2,16*%
%TO.N,Net-(U7-Q0)*%
X119370000Y-90160000D03*
%TD*%
D14*
%TO.P,C2,1*%
%TO.N,+5V*%
X114170000Y-169330000D03*
%TO.P,C2,2*%
%TO.N,GND*%
X114170000Y-174330000D03*
%TD*%
D16*
%TO.P,J3,1,Pin_1*%
%TO.N,/~{DECEN}*%
X139690000Y-191050000D03*
D17*
%TO.P,J3,2,Pin_2*%
%TO.N,/K7*%
X137150000Y-191050000D03*
%TO.P,J3,3,Pin_3*%
%TO.N,Net-(D2-A)*%
X139690000Y-188510000D03*
%TO.P,J3,4,Pin_4*%
%TO.N,Net-(D1-A)*%
X137150000Y-188510000D03*
%TD*%
D12*
%TO.P,RN2,1,common*%
%TO.N,+5V*%
X117220000Y-133560000D03*
D13*
%TO.P,RN2,2,R1*%
%TO.N,Net-(RN2-R1)*%
X119760000Y-133560000D03*
%TO.P,RN2,3,R2*%
%TO.N,Net-(RN2-R2)*%
X122300000Y-133560000D03*
%TO.P,RN2,4,R3*%
%TO.N,Net-(RN2-R3)*%
X124840000Y-133560000D03*
%TO.P,RN2,5,R4*%
%TO.N,Net-(J1-Pin_12)*%
X127380000Y-133560000D03*
%TO.P,RN2,6,R5*%
%TO.N,Net-(J1-Pin_1)*%
X129920000Y-133560000D03*
%TD*%
D14*
%TO.P,C10,1*%
%TO.N,+5V*%
X100780000Y-173340000D03*
%TO.P,C10,2*%
%TO.N,GND*%
X105780000Y-173340000D03*
%TD*%
D12*
%TO.P,D2,1,K*%
%TO.N,Net-(D2-K)*%
X139700000Y-177870000D03*
D13*
%TO.P,D2,2,A*%
%TO.N,Net-(D2-A)*%
X139700000Y-185490000D03*
%TD*%
D12*
%TO.P,SW3,1*%
%TO.N,Net-(J2-Pin_2)*%
X99050000Y-97780000D03*
D13*
%TO.P,SW3,2*%
%TO.N,Net-(J2-Pin_5)*%
X101590000Y-97780000D03*
%TO.P,SW3,3*%
%TO.N,Net-(J2-Pin_8)*%
X104130000Y-97780000D03*
%TO.P,SW3,4*%
%TO.N,Net-(J2-Pin_11)*%
X106670000Y-97780000D03*
%TO.P,SW3,5*%
%TO.N,Net-(J2-Pin_14)*%
X109210000Y-97780000D03*
%TO.P,SW3,6*%
%TO.N,Net-(J2-Pin_17)*%
X111750000Y-97780000D03*
%TO.P,SW3,7*%
%TO.N,Net-(U8-Q7)*%
X111750000Y-90160000D03*
%TO.P,SW3,8*%
%TO.N,Net-(U8-Q6)*%
X109210000Y-90160000D03*
%TO.P,SW3,9*%
%TO.N,Net-(U8-Q5)*%
X106670000Y-90160000D03*
%TO.P,SW3,10*%
%TO.N,Net-(U8-Q4)*%
X104130000Y-90160000D03*
%TO.P,SW3,11*%
%TO.N,Net-(U8-Q3)*%
X101590000Y-90160000D03*
%TO.P,SW3,12*%
%TO.N,Net-(U8-Q2)*%
X99050000Y-90160000D03*
%TD*%
D12*
%TO.P,SW4,1*%
%TO.N,Net-(U9-Q6)*%
X91470000Y-97780000D03*
D13*
%TO.P,SW4,2*%
%TO.N,Net-(RN2-R1)*%
X91470000Y-90160000D03*
%TD*%
D14*
%TO.P,R1,1*%
%TO.N,Net-(D1-K)*%
X137460000Y-173720000D03*
D13*
%TO.P,R1,2*%
%TO.N,+5V*%
X145080000Y-173720000D03*
%TD*%
D20*
%TO.N,+5V*%
X138650000Y-132530000D03*
D21*
X119370000Y-119980000D03*
D20*
X138650000Y-140017000D03*
X138650000Y-166990000D03*
D22*
%TO.N,/D7*%
X67930000Y-193149000D03*
%TO.N,/D6*%
X65660000Y-192530000D03*
%TO.N,/D5*%
X64850000Y-191600000D03*
%TO.N,/D4*%
X63570000Y-190960000D03*
%TO.N,/D3*%
X62230000Y-190320000D03*
%TO.N,/D2*%
X62940000Y-189680000D03*
%TO.N,/D1*%
X64194500Y-189040000D03*
%TO.N,/D0*%
X65474500Y-188400000D03*
D23*
%TO.N,/A11*%
X83000000Y-175820000D03*
X83000000Y-155870000D03*
%TO.N,/A10*%
X76650000Y-156860000D03*
X77920000Y-176570000D03*
%TO.N,/A9*%
X85540000Y-177320000D03*
X85540000Y-157720000D03*
%TO.N,/A8*%
X88080000Y-158210000D03*
X88080000Y-178070000D03*
%TO.N,/A7*%
X91910000Y-164060000D03*
%TO.N,/A6*%
X89350000Y-163290000D03*
%TO.N,/A5*%
X86770000Y-162570000D03*
%TO.N,/A4*%
X84270000Y-160375500D03*
%TO.N,/A3*%
X81730000Y-161100000D03*
%TO.N,Net-(U10-A12)*%
X94430000Y-169430000D03*
%TO.N,Net-(U10-A13)*%
X90620000Y-171990000D03*
%TO.N,Net-(U10-A14)*%
X93160000Y-170200000D03*
%TO.N,Net-(U10-A15)*%
X96970000Y-170924500D03*
%TO.N,Net-(RN2-R1)*%
X82520000Y-127910000D03*
%TO.N,Net-(RN2-R2)*%
X79980000Y-127170000D03*
%TO.N,Net-(RN2-R3)*%
X77460000Y-126430000D03*
%TO.N,Net-(RN3-R2)*%
X60360000Y-153890000D03*
%TO.N,Net-(RN3-R3)*%
X58980000Y-168960000D03*
%TD*%
D24*
%TO.N,Net-(J1-Pin_12)*%
X137150000Y-104380000D02*
X99050000Y-104380000D01*
D25*
%TO.N,GND*%
X122153553Y-185663553D02*
X121826446Y-185336446D01*
X121472893Y-185190000D02*
X96310000Y-185190000D01*
D26*
X65667107Y-149410000D02*
X77172893Y-149410000D01*
D25*
X62740000Y-182602893D02*
X62740000Y-176990000D01*
X69807969Y-185336447D02*
X67886446Y-187257970D01*
D26*
X77526447Y-149263553D02*
X80460000Y-146330000D01*
D25*
X149040000Y-197460000D02*
X149040000Y-188637107D01*
X67740000Y-187810000D02*
X62886446Y-182956446D01*
X149186447Y-188283553D02*
X150080000Y-187390000D01*
X67740000Y-187611523D02*
X67740000Y-187810000D01*
D26*
X62680000Y-152190000D02*
X65313554Y-149556446D01*
D25*
X96310000Y-185190000D02*
X70161523Y-185190000D01*
X122300000Y-187810000D02*
X122300000Y-186017107D01*
D26*
X65667107Y-149410005D02*
G75*
G03*
X65313554Y-149556446I-7J-499995D01*
G01*
D25*
X62740005Y-182602893D02*
G75*
G03*
X62886446Y-182956446I499995J-7D01*
G01*
D26*
X77172893Y-149409995D02*
G75*
G03*
X77526447Y-149263553I7J499995D01*
G01*
D25*
X70161523Y-185190017D02*
G75*
G03*
X69807970Y-185336448I-23J-499983D01*
G01*
X121826449Y-185336443D02*
G75*
G03*
X121472893Y-185190000I-353549J-353557D01*
G01*
X122299995Y-186017107D02*
G75*
G03*
X122153553Y-185663553I-499995J7D01*
G01*
X149186444Y-188283550D02*
G75*
G03*
X149040000Y-188637107I353556J-353550D01*
G01*
X67886435Y-187257959D02*
G75*
G03*
X67740000Y-187611523I353565J-353541D01*
G01*
%TO.N,+5V*%
X144900000Y-140030000D02*
X119611523Y-140030000D01*
X139690000Y-131282893D02*
X139690000Y-122977107D01*
X140342893Y-166990000D02*
X138650000Y-166990000D01*
X100780000Y-146330000D02*
X102912893Y-146330000D01*
X117200000Y-153800000D02*
X114170000Y-153800000D01*
X96300000Y-182390000D02*
X69741523Y-182390000D01*
X118887107Y-166990000D02*
X138650000Y-166990000D01*
X136686893Y-119974000D02*
X69524000Y-119974000D01*
X145080000Y-197460000D02*
X145080000Y-182390000D01*
X117220000Y-169330000D02*
X114170000Y-169330000D01*
X68570000Y-117020000D02*
X68570000Y-118812893D01*
D26*
X146183553Y-186286447D02*
X145080000Y-187390000D01*
D25*
X119257969Y-139883553D02*
X117366446Y-137992030D01*
X117220000Y-137440000D02*
X114170000Y-137440000D01*
X145080000Y-182390000D02*
X96300000Y-182390000D01*
X96310000Y-180190000D02*
X96310000Y-182380000D01*
X145080000Y-173720000D02*
X145080000Y-171727107D01*
D26*
X152630000Y-187390000D02*
X151526446Y-186286446D01*
D25*
X114170000Y-169330000D02*
X112416446Y-167576446D01*
X117366447Y-168303553D02*
X118533554Y-167136446D01*
X67740000Y-180190000D02*
X67740000Y-176990000D01*
X69387969Y-182243553D02*
X67886446Y-180742030D01*
D26*
X151172893Y-186140000D02*
X146537107Y-186140000D01*
D25*
X68716447Y-119166447D02*
X69524000Y-119974000D01*
X67740000Y-180388477D02*
X67740000Y-180190000D01*
X103266447Y-146183553D02*
X103830000Y-145620000D01*
X117220000Y-169330000D02*
X117220000Y-168657107D01*
X69524000Y-119974000D02*
X93950000Y-119974000D01*
D24*
X132460000Y-165200000D02*
X132460000Y-166990000D01*
D25*
X112062893Y-167430000D02*
X100780000Y-167430000D01*
X145080000Y-182390000D02*
X145080000Y-173720000D01*
X99440000Y-180190000D02*
X96310000Y-180190000D01*
X93970000Y-117020000D02*
X93970000Y-119954000D01*
X96310000Y-182380000D02*
X96300000Y-182390000D01*
X117220000Y-137638477D02*
X117220000Y-137440000D01*
X93970000Y-119954000D02*
X93950000Y-119974000D01*
X144933553Y-171373553D02*
X140696446Y-167136446D01*
X139543553Y-122623553D02*
X137040446Y-120120446D01*
X100780000Y-167430000D02*
X98240000Y-167430000D01*
X138650000Y-132530000D02*
X139543554Y-131636446D01*
X117366444Y-168303550D02*
G75*
G03*
X117220000Y-168657107I353556J-353550D01*
G01*
X102912893Y-146329995D02*
G75*
G03*
X103266447Y-146183553I7J499995D01*
G01*
X119257958Y-139883564D02*
G75*
G03*
X119611523Y-140030000I353542J353564D01*
G01*
X67740017Y-180388477D02*
G75*
G03*
X67886447Y-180742029I499983J-23D01*
G01*
X139689995Y-122977107D02*
G75*
G03*
X139543553Y-122623553I-499995J7D01*
G01*
X118887107Y-166990005D02*
G75*
G03*
X118533554Y-167136446I-7J-499995D01*
G01*
X69387958Y-182243564D02*
G75*
G03*
X69741523Y-182390000I353542J353564D01*
G01*
X112416449Y-167576443D02*
G75*
G03*
X112062893Y-167430000I-353549J-353557D01*
G01*
X139543557Y-131636449D02*
G75*
G03*
X139690000Y-131282893I-353557J353549D01*
G01*
X137040449Y-120120443D02*
G75*
G03*
X136686893Y-119974000I-353549J-353557D01*
G01*
X68570005Y-118812893D02*
G75*
G03*
X68716447Y-119166447I499995J-7D01*
G01*
X117220017Y-137638477D02*
G75*
G03*
X117366447Y-137992029I499983J-23D01*
G01*
X145079995Y-171727107D02*
G75*
G03*
X144933553Y-171373553I-499995J7D01*
G01*
D26*
X146537107Y-186140005D02*
G75*
G03*
X146183553Y-186286447I-7J-499995D01*
G01*
D25*
X140696449Y-167136443D02*
G75*
G03*
X140342893Y-166990000I-353549J-353557D01*
G01*
D26*
X151526449Y-186286443D02*
G75*
G03*
X151172893Y-186140000I-353549J-353557D01*
G01*
D24*
%TO.N,Net-(RN1-R2)*%
X140856447Y-163303553D02*
X146193554Y-157966446D01*
X127380000Y-165190000D02*
X128973554Y-163596446D01*
X146547107Y-157820000D02*
X151182893Y-157820000D01*
X151536447Y-157966447D02*
X152520000Y-158950000D01*
X129327107Y-163450000D02*
X140502893Y-163450000D01*
X129327107Y-163450005D02*
G75*
G03*
X128973554Y-163596446I-7J-499995D01*
G01*
X140502893Y-163449995D02*
G75*
G03*
X140856447Y-163303553I7J499995D01*
G01*
X146547107Y-157820005D02*
G75*
G03*
X146193554Y-157966446I-7J-499995D01*
G01*
X151536450Y-157966444D02*
G75*
G03*
X151182893Y-157820000I-353550J-353556D01*
G01*
%TO.N,/K7*%
X137160000Y-191060000D02*
X137160000Y-197460000D01*
X137150000Y-191050000D02*
X137160000Y-191060000D01*
%TO.N,/D7*%
X67930000Y-193149000D02*
X92551893Y-193149000D01*
X93600000Y-194197107D02*
X93600000Y-197460000D01*
X92905447Y-193295447D02*
X93453554Y-193843554D01*
X93599995Y-194197107D02*
G75*
G03*
X93453554Y-193843554I-499995J7D01*
G01*
X92905450Y-193295444D02*
G75*
G03*
X92551893Y-193149000I-353550J-353556D01*
G01*
%TO.N,/D6*%
X97560000Y-194197107D02*
X97560000Y-197460000D01*
X96240947Y-192670947D02*
X97413554Y-193843554D01*
X65665500Y-192524500D02*
X95887393Y-192524500D01*
X65660000Y-192530000D02*
X65665500Y-192524500D01*
X96240950Y-192670944D02*
G75*
G03*
X95887393Y-192524500I-353550J-353556D01*
G01*
X97559995Y-194197107D02*
G75*
G03*
X97413554Y-193843554I-499995J7D01*
G01*
%TO.N,/D5*%
X99576447Y-192046447D02*
X101373554Y-193843554D01*
X65357107Y-191900000D02*
X99222893Y-191900000D01*
X64850000Y-191600000D02*
X65003554Y-191753554D01*
X101520000Y-194197107D02*
X101520000Y-197460000D01*
X101519995Y-194197107D02*
G75*
G03*
X101373554Y-193843554I-499995J7D01*
G01*
X99576450Y-192046444D02*
G75*
G03*
X99222893Y-191900000I-353550J-353556D01*
G01*
X65003551Y-191753557D02*
G75*
G03*
X65357107Y-191900000I353549J353557D01*
G01*
%TO.N,/D4*%
X63570000Y-190960000D02*
X64886777Y-190960000D01*
X65740991Y-191400000D02*
X102682893Y-191400000D01*
X105480000Y-194197107D02*
X105480000Y-197460000D01*
X103036447Y-191546447D02*
X105333554Y-193843554D01*
X65240331Y-191106447D02*
X65387438Y-191253554D01*
X65387443Y-191253549D02*
G75*
G03*
X65740991Y-191400000I353557J353549D01*
G01*
X105479995Y-194197107D02*
G75*
G03*
X105333554Y-193843554I-499995J7D01*
G01*
X65240342Y-191106436D02*
G75*
G03*
X64886777Y-190960000I-353542J-353564D01*
G01*
X103036450Y-191546444D02*
G75*
G03*
X102682893Y-191400000I-353550J-353556D01*
G01*
%TO.N,/D3*%
X65336447Y-190466447D02*
X65623554Y-190753554D01*
X109440000Y-194197107D02*
X109440000Y-197460000D01*
X62230000Y-190320000D02*
X64982893Y-190320000D01*
X65977107Y-190900000D02*
X106142893Y-190900000D01*
X106496447Y-191046447D02*
X109293554Y-193843554D01*
X109439995Y-194197107D02*
G75*
G03*
X109293554Y-193843554I-499995J7D01*
G01*
X106496450Y-191046444D02*
G75*
G03*
X106142893Y-190900000I-353550J-353556D01*
G01*
X65336450Y-190466444D02*
G75*
G03*
X64982893Y-190320000I-353550J-353556D01*
G01*
X65623551Y-190753557D02*
G75*
G03*
X65977107Y-190900000I353549J353557D01*
G01*
%TO.N,/D2*%
X62940000Y-189680000D02*
X65082893Y-189680000D01*
X65436447Y-189826447D02*
X65863554Y-190253554D01*
X66217107Y-190400000D02*
X109602893Y-190400000D01*
X113400000Y-194197107D02*
X113400000Y-197460000D01*
X109956447Y-190546447D02*
X113253554Y-193843554D01*
X113399995Y-194197107D02*
G75*
G03*
X113253554Y-193843554I-499995J7D01*
G01*
X65436450Y-189826444D02*
G75*
G03*
X65082893Y-189680000I-353550J-353556D01*
G01*
X65863551Y-190253557D02*
G75*
G03*
X66217107Y-190400000I353549J353557D01*
G01*
X109956450Y-190546444D02*
G75*
G03*
X109602893Y-190400000I-353550J-353556D01*
G01*
%TO.N,/D1*%
X65536447Y-189186447D02*
X66103554Y-189753554D01*
X113416447Y-190046447D02*
X117213554Y-193843554D01*
X64194500Y-189040000D02*
X65182893Y-189040000D01*
X66457107Y-189900000D02*
X113062893Y-189900000D01*
X117360000Y-194197107D02*
X117360000Y-197460000D01*
X117359995Y-194197107D02*
G75*
G03*
X117213554Y-193843554I-499995J7D01*
G01*
X66103551Y-189753557D02*
G75*
G03*
X66457107Y-189900000I353549J353557D01*
G01*
X113416450Y-190046444D02*
G75*
G03*
X113062893Y-189900000I-353550J-353556D01*
G01*
X65536450Y-189186444D02*
G75*
G03*
X65182893Y-189040000I-353550J-353556D01*
G01*
%TO.N,/D0*%
X116876447Y-189546447D02*
X121173554Y-193843554D01*
X65474500Y-188400000D02*
X66328054Y-189253554D01*
X66681607Y-189400000D02*
X116522893Y-189400000D01*
X121320000Y-194197107D02*
X121320000Y-197460000D01*
X121319995Y-194197107D02*
G75*
G03*
X121173554Y-193843554I-499995J7D01*
G01*
X66328051Y-189253557D02*
G75*
G03*
X66681607Y-189400000I353549J353557D01*
G01*
X116876450Y-189546444D02*
G75*
G03*
X116522893Y-189400000I-353550J-353556D01*
G01*
%TO.N,/~{DECEN}*%
X141120000Y-197460000D02*
X141120000Y-192687107D01*
X139827325Y-191050000D02*
X139690000Y-191050000D01*
X140973553Y-192333553D02*
X139690000Y-191050000D01*
X141119995Y-192687107D02*
G75*
G03*
X140973553Y-192333553I-499995J7D01*
G01*
%TO.N,Net-(RN1-R3)*%
X140696447Y-162853553D02*
X146013554Y-157536446D01*
X153646447Y-157536447D02*
X155060000Y-158950000D01*
X127237107Y-163000000D02*
X140342893Y-163000000D01*
X124840000Y-165190000D02*
X126883554Y-163146446D01*
X146367107Y-157390000D02*
X153292893Y-157390000D01*
X127237107Y-163000005D02*
G75*
G03*
X126883554Y-163146446I-7J-499995D01*
G01*
X140342893Y-162999995D02*
G75*
G03*
X140696447Y-162853553I7J499995D01*
G01*
X153646450Y-157536444D02*
G75*
G03*
X153292893Y-157390000I-353550J-353556D01*
G01*
X146367107Y-157390005D02*
G75*
G03*
X146013554Y-157536446I-7J-499995D01*
G01*
%TO.N,/A14*%
X124127107Y-115495000D02*
X125257893Y-115495000D01*
X123190000Y-117523883D02*
X123190000Y-116432107D01*
X101590000Y-117020000D02*
X102968554Y-118398554D01*
X125611447Y-115641447D02*
X126990000Y-117020000D01*
X103322107Y-118545000D02*
X122168883Y-118545000D01*
X123336447Y-116078553D02*
X123773554Y-115641446D01*
X122522437Y-118398553D02*
X123043554Y-117877436D01*
X102968551Y-118398557D02*
G75*
G03*
X103322107Y-118545000I353549J353557D01*
G01*
X123336444Y-116078550D02*
G75*
G03*
X123190000Y-116432107I353556J-353550D01*
G01*
X124127107Y-115495005D02*
G75*
G03*
X123773554Y-115641446I-7J-499995D01*
G01*
X123043562Y-117877444D02*
G75*
G03*
X123190000Y-117523883I-353562J353544D01*
G01*
X122168883Y-118544988D02*
G75*
G03*
X122522437Y-118398553I17J499988D01*
G01*
X125611450Y-115641444D02*
G75*
G03*
X125257893Y-115495000I-353550J-353556D01*
G01*
%TO.N,/A13*%
X90620000Y-146330000D02*
X94183554Y-149893554D01*
X94537107Y-150040000D02*
X118312893Y-150040000D01*
X124450000Y-117020000D02*
X122694446Y-118775554D01*
X122340893Y-118922000D02*
X101159107Y-118922000D01*
X100805553Y-118775553D02*
X99050000Y-117020000D01*
X118666447Y-150186447D02*
X122280000Y-153800000D01*
X122340893Y-118921995D02*
G75*
G03*
X122694446Y-118775554I7J499995D01*
G01*
X118666450Y-150186444D02*
G75*
G03*
X118312893Y-150040000I-353550J-353556D01*
G01*
X94183551Y-149893557D02*
G75*
G03*
X94537107Y-150040000I353549J353557D01*
G01*
X100805550Y-118775556D02*
G75*
G03*
X101159107Y-118922000I353550J353556D01*
G01*
%TO.N,/A12*%
X97888553Y-115641447D02*
X96510000Y-117020000D01*
X121910000Y-117020000D02*
X120531446Y-115641446D01*
X76190000Y-117020000D02*
X77568554Y-115641446D01*
X120177893Y-115495000D02*
X98242107Y-115495000D01*
X77922107Y-115495000D02*
X94777893Y-115495000D01*
X95131447Y-115641447D02*
X96510000Y-117020000D01*
X95131450Y-115641444D02*
G75*
G03*
X94777893Y-115495000I-353550J-353556D01*
G01*
X77922107Y-115495005D02*
G75*
G03*
X77568554Y-115641446I-7J-499995D01*
G01*
X98242107Y-115495005D02*
G75*
G03*
X97888553Y-115641447I-7J-499995D01*
G01*
X120531449Y-115641443D02*
G75*
G03*
X120177893Y-115495000I-353549J-353557D01*
G01*
%TO.N,/A11*%
X83000000Y-175820000D02*
X107562893Y-175820000D01*
X107916447Y-175966447D02*
X112140000Y-180190000D01*
X83000000Y-155870000D02*
X127622893Y-155870000D01*
X127976447Y-155723553D02*
X129900000Y-153800000D01*
X127622893Y-155869995D02*
G75*
G03*
X127976447Y-155723553I7J499995D01*
G01*
X107916450Y-175966444D02*
G75*
G03*
X107562893Y-175820000I-353550J-353556D01*
G01*
%TO.N,/A10*%
X83616447Y-156713553D02*
X83833554Y-156496446D01*
X129673447Y-156166553D02*
X131893554Y-153946446D01*
X76650000Y-156860000D02*
X83262893Y-156860000D01*
X132247107Y-153800000D02*
X132440000Y-153800000D01*
X86493683Y-156350000D02*
X86530683Y-156313000D01*
X84187107Y-156350000D02*
X86493683Y-156350000D01*
X109600000Y-180190000D02*
X106126446Y-176716446D01*
X105772893Y-176570000D02*
X77920000Y-176570000D01*
X86530683Y-156313000D02*
X129319893Y-156313000D01*
X83262893Y-156859995D02*
G75*
G03*
X83616447Y-156713553I7J499995D01*
G01*
X106126449Y-176716443D02*
G75*
G03*
X105772893Y-176570000I-353549J-353557D01*
G01*
X129319893Y-156312995D02*
G75*
G03*
X129673447Y-156166553I7J499995D01*
G01*
X132247107Y-153800005D02*
G75*
G03*
X131893554Y-153946446I-7J-499995D01*
G01*
X84187107Y-156350005D02*
G75*
G03*
X83833554Y-156496446I-7J-499995D01*
G01*
%TO.N,/A9*%
X103982893Y-177320000D02*
X85540000Y-177320000D01*
X86897107Y-157220000D02*
X127632893Y-157220000D01*
X107060000Y-180190000D02*
X104336446Y-177466446D01*
X127986447Y-157366447D02*
X131893554Y-161273554D01*
X86336447Y-157573553D02*
X86543554Y-157366446D01*
X132247107Y-161420000D02*
X132440000Y-161420000D01*
X85540000Y-157720000D02*
X85982893Y-157720000D01*
X127986450Y-157366444D02*
G75*
G03*
X127632893Y-157220000I-353550J-353556D01*
G01*
X131893551Y-161273557D02*
G75*
G03*
X132247107Y-161420000I353549J353557D01*
G01*
X104336449Y-177466443D02*
G75*
G03*
X103982893Y-177320000I-353549J-353557D01*
G01*
X85982893Y-157719995D02*
G75*
G03*
X86336447Y-157573553I7J499995D01*
G01*
X86897107Y-157220005D02*
G75*
G03*
X86543554Y-157366446I-7J-499995D01*
G01*
%TO.N,/A8*%
X88080000Y-158210000D02*
X89992893Y-158210000D01*
X102546447Y-178216447D02*
X104520000Y-180190000D01*
X90947107Y-157670000D02*
X125942893Y-157670000D01*
X88080000Y-178070000D02*
X102192893Y-178070000D01*
X126296447Y-157816447D02*
X129900000Y-161420000D01*
X90346447Y-158063553D02*
X90593554Y-157816446D01*
X126296450Y-157816444D02*
G75*
G03*
X125942893Y-157670000I-353550J-353556D01*
G01*
X90947107Y-157670005D02*
G75*
G03*
X90593554Y-157816446I-7J-499995D01*
G01*
X89992893Y-158209995D02*
G75*
G03*
X90346447Y-158063553I7J499995D01*
G01*
X102546450Y-178216444D02*
G75*
G03*
X102192893Y-178070000I-353550J-353556D01*
G01*
%TO.N,/A7*%
X91910000Y-164060000D02*
X124512893Y-164060000D01*
X124866447Y-163913553D02*
X127360000Y-161420000D01*
X124512893Y-164059995D02*
G75*
G03*
X124866447Y-163913553I7J499995D01*
G01*
%TO.N,/A6*%
X89350000Y-163290000D02*
X115146575Y-163290000D01*
X115880789Y-163610000D02*
X122022893Y-163610000D01*
X124627107Y-161420000D02*
X124820000Y-161420000D01*
X115500129Y-163436447D02*
X115527236Y-163463554D01*
X122376447Y-163463553D02*
X124273554Y-161566446D01*
X122022893Y-163609995D02*
G75*
G03*
X122376447Y-163463553I7J499995D01*
G01*
X115527242Y-163463548D02*
G75*
G03*
X115880789Y-163610000I353558J353548D01*
G01*
X115500141Y-163436435D02*
G75*
G03*
X115146575Y-163290000I-353541J-353565D01*
G01*
X124627107Y-161420005D02*
G75*
G03*
X124273554Y-161566446I-7J-499995D01*
G01*
%TO.N,/A5*%
X116117107Y-163150000D02*
X120342893Y-163150000D01*
X86770000Y-162570000D02*
X86775000Y-162565000D01*
X120696447Y-163003553D02*
X122280000Y-161420000D01*
X86775000Y-162565000D02*
X115117893Y-162565000D01*
X115471447Y-162711447D02*
X115763554Y-163003554D01*
X120342893Y-163149995D02*
G75*
G03*
X120696447Y-163003553I7J499995D01*
G01*
X115763551Y-163003557D02*
G75*
G03*
X116117107Y-163150000I353549J353557D01*
G01*
X115471450Y-162711444D02*
G75*
G03*
X115117893Y-162565000I-353550J-353556D01*
G01*
%TO.N,/A4*%
X115327393Y-160375500D02*
X84270000Y-160375500D01*
X117928389Y-159815496D02*
X116301611Y-159815496D01*
X119740000Y-161420000D02*
X118281942Y-159961942D01*
X115948057Y-159961943D02*
X115680946Y-160229054D01*
X115327393Y-160375495D02*
G75*
G03*
X115680946Y-160229054I7J499995D01*
G01*
X118281948Y-159961936D02*
G75*
G03*
X117928389Y-159815496I-353548J-353564D01*
G01*
X116301611Y-159815505D02*
G75*
G03*
X115948057Y-159961943I-11J-499995D01*
G01*
%TO.N,/A3*%
X117026447Y-161246447D02*
X117200000Y-161420000D01*
X81730000Y-161100000D02*
X116672893Y-161100000D01*
X117026450Y-161246444D02*
G75*
G03*
X116672893Y-161100000I-353550J-353556D01*
G01*
%TO.N,Net-(J1-Pin_1)*%
X137150000Y-109460000D02*
X99050000Y-109460000D01*
%TO.N,Net-(U9-Q1)*%
X71110000Y-124640000D02*
X78730000Y-124640000D01*
%TO.N,Net-(U10-OE)*%
X84583553Y-156916447D02*
X80606446Y-160893554D01*
X80460000Y-161247107D02*
X80460000Y-167430000D01*
X144262893Y-156770000D02*
X84937107Y-156770000D01*
X148563553Y-152676447D02*
X144616446Y-156623554D01*
X148710000Y-149127107D02*
X148710000Y-152322893D01*
X147440000Y-147650000D02*
X148563554Y-148773554D01*
X144262893Y-156769995D02*
G75*
G03*
X144616446Y-156623554I7J499995D01*
G01*
X148709995Y-149127107D02*
G75*
G03*
X148563554Y-148773554I-499995J7D01*
G01*
X80606443Y-160893551D02*
G75*
G03*
X80460000Y-161247107I353557J-353549D01*
G01*
X148563556Y-152676450D02*
G75*
G03*
X148710000Y-152322893I-353556J353550D01*
G01*
X84937107Y-156770005D02*
G75*
G03*
X84583553Y-156916447I-7J-499995D01*
G01*
%TO.N,Net-(U7-P3)*%
X155060000Y-132007107D02*
X155060000Y-140030000D01*
X141951447Y-118691447D02*
X154913554Y-131653554D01*
X129530000Y-117020000D02*
X130908554Y-118398554D01*
X131262107Y-118545000D02*
X141597893Y-118545000D01*
X130908551Y-118398557D02*
G75*
G03*
X131262107Y-118545000I353549J353557D01*
G01*
X155059995Y-132007107D02*
G75*
G03*
X154913554Y-131653554I-499995J7D01*
G01*
X141951450Y-118691444D02*
G75*
G03*
X141597893Y-118545000I-353550J-353556D01*
G01*
%TO.N,Net-(U10-A12)*%
X123461447Y-170708553D02*
X124840000Y-169330000D01*
X99642107Y-170855000D02*
X123107893Y-170855000D01*
X94430000Y-169430000D02*
X97802893Y-169430000D01*
X98156447Y-169576447D02*
X99288554Y-170708554D01*
X99288551Y-170708557D02*
G75*
G03*
X99642107Y-170855000I353549J353557D01*
G01*
X98156450Y-169576444D02*
G75*
G03*
X97802893Y-169430000I-353550J-353556D01*
G01*
X123107893Y-170854995D02*
G75*
G03*
X123461447Y-170708553I7J499995D01*
G01*
%TO.N,Net-(U10-A13)*%
X122300000Y-175777107D02*
X122300000Y-176950000D01*
X118866447Y-172136447D02*
X122153554Y-175423554D01*
X90620000Y-171990000D02*
X118512893Y-171990000D01*
X122299995Y-175777107D02*
G75*
G03*
X122153554Y-175423554I-499995J7D01*
G01*
X118866450Y-172136444D02*
G75*
G03*
X118512893Y-171990000I-353550J-353556D01*
G01*
%TO.N,Net-(U10-A14)*%
X98296447Y-170346447D02*
X99035554Y-171085554D01*
X132267107Y-169330000D02*
X132460000Y-169330000D01*
X130304447Y-171085553D02*
X131913554Y-169476446D01*
X99389107Y-171232000D02*
X129950893Y-171232000D01*
X93160000Y-170200000D02*
X97942893Y-170200000D01*
X129950893Y-171231995D02*
G75*
G03*
X130304447Y-171085553I7J499995D01*
G01*
X98296450Y-170346444D02*
G75*
G03*
X97942893Y-170200000I-353550J-353556D01*
G01*
X99035551Y-171085557D02*
G75*
G03*
X99389107Y-171232000I353549J353557D01*
G01*
X132267107Y-169330005D02*
G75*
G03*
X131913554Y-169476446I-7J-499995D01*
G01*
%TO.N,Net-(U10-A15)*%
X97862607Y-171610000D02*
X125832893Y-171610000D01*
X96970000Y-170924500D02*
X97509054Y-171463554D01*
X129920000Y-175697107D02*
X129920000Y-176950000D01*
X126186447Y-171756447D02*
X129773554Y-175343554D01*
X129919995Y-175697107D02*
G75*
G03*
X129773554Y-175343554I-499995J7D01*
G01*
X126186450Y-171756444D02*
G75*
G03*
X125832893Y-171610000I-353550J-353556D01*
G01*
X97509051Y-171463557D02*
G75*
G03*
X97862607Y-171610000I353549J353557D01*
G01*
%TO.N,Net-(U11-~{CS1})*%
X115156447Y-144013553D02*
X115488554Y-143681446D01*
X77757107Y-144160000D02*
X114802893Y-144160000D01*
X120921447Y-143681447D02*
X122300000Y-145060000D01*
X75380000Y-146330000D02*
X77403554Y-144306446D01*
X115842107Y-143535000D02*
X120567893Y-143535000D01*
X115842107Y-143535005D02*
G75*
G03*
X115488554Y-143681446I-7J-499995D01*
G01*
X77757107Y-144160005D02*
G75*
G03*
X77403554Y-144306446I-7J-499995D01*
G01*
X120921450Y-143681444D02*
G75*
G03*
X120567893Y-143535000I-353550J-353556D01*
G01*
X114802893Y-144159995D02*
G75*
G03*
X115156447Y-144013553I7J499995D01*
G01*
%TO.N,Net-(U10-CE)*%
X127877437Y-155273553D02*
X128483554Y-154667436D01*
X83656447Y-155036447D02*
X83893554Y-155273554D01*
X75380000Y-167430000D02*
X75380000Y-156801802D01*
X77291802Y-154890000D02*
X83302893Y-154890000D01*
X128776447Y-147713553D02*
X129773554Y-146716446D01*
X128630000Y-154313883D02*
X128630000Y-148067107D01*
X75526447Y-156448248D02*
X76938249Y-155036446D01*
X129920000Y-146362893D02*
X129920000Y-145060000D01*
X84247107Y-155420000D02*
X127523883Y-155420000D01*
X128776444Y-147713550D02*
G75*
G03*
X128630000Y-148067107I353556J-353550D01*
G01*
X83656450Y-155036444D02*
G75*
G03*
X83302893Y-154890000I-353550J-353556D01*
G01*
X129773557Y-146716449D02*
G75*
G03*
X129920000Y-146362893I-353557J353549D01*
G01*
X75526446Y-156448247D02*
G75*
G03*
X75380000Y-156801802I353554J-353553D01*
G01*
X128483562Y-154667444D02*
G75*
G03*
X128630000Y-154313883I-353562J353544D01*
G01*
X83893551Y-155273557D02*
G75*
G03*
X84247107Y-155420000I353549J353557D01*
G01*
X127523883Y-155419988D02*
G75*
G03*
X127877437Y-155273553I17J499988D01*
G01*
X77291802Y-154890002D02*
G75*
G03*
X76938250Y-155036447I-2J-499998D01*
G01*
%TO.N,Net-(RN2-R1)*%
X96426447Y-128056447D02*
X97533554Y-129163554D01*
X126001447Y-138818553D02*
X127380000Y-137440000D01*
X119760000Y-133560000D02*
X115656446Y-129456446D01*
X115302893Y-129310000D02*
X97887107Y-129310000D01*
X119760000Y-137440000D02*
X121138554Y-138818554D01*
X121492107Y-138965000D02*
X125647893Y-138965000D01*
X82520000Y-127910000D02*
X96072893Y-127910000D01*
X97533551Y-129163557D02*
G75*
G03*
X97887107Y-129310000I353549J353557D01*
G01*
X115656449Y-129456443D02*
G75*
G03*
X115302893Y-129310000I-353549J-353557D01*
G01*
X121138551Y-138818557D02*
G75*
G03*
X121492107Y-138965000I353549J353557D01*
G01*
X125647893Y-138964995D02*
G75*
G03*
X126001447Y-138818553I7J499995D01*
G01*
X96426450Y-128056444D02*
G75*
G03*
X96072893Y-127910000I-353550J-353556D01*
G01*
%TO.N,Net-(U11-CS2)*%
X97078553Y-147708553D02*
X95700000Y-146330000D01*
X125647893Y-147855000D02*
X97432107Y-147855000D01*
X134980000Y-153800000D02*
X134980000Y-145796117D01*
X132718883Y-143535000D02*
X129112107Y-143535000D01*
X128758553Y-143681447D02*
X127380000Y-145060000D01*
X145627107Y-151330000D02*
X147440000Y-151330000D01*
X143096447Y-153653553D02*
X145273554Y-151476446D01*
X127380000Y-145060000D02*
X127380000Y-146122893D01*
X127233553Y-146476447D02*
X126001446Y-147708554D01*
X134833553Y-145442563D02*
X133072436Y-143681446D01*
X149980000Y-151330000D02*
X157600000Y-151330000D01*
X134980000Y-153800000D02*
X142742893Y-153800000D01*
X97078550Y-147708556D02*
G75*
G03*
X97432107Y-147855000I353550J353556D01*
G01*
X125647893Y-147854995D02*
G75*
G03*
X126001446Y-147708554I7J499995D01*
G01*
X145627107Y-151330005D02*
G75*
G03*
X145273554Y-151476446I-7J-499995D01*
G01*
X142742893Y-153799995D02*
G75*
G03*
X143096447Y-153653553I7J499995D01*
G01*
X129112107Y-143535005D02*
G75*
G03*
X128758553Y-143681447I-7J-499995D01*
G01*
X127233556Y-146476450D02*
G75*
G03*
X127380000Y-146122893I-353556J353550D01*
G01*
X134979988Y-145796117D02*
G75*
G03*
X134833553Y-145442563I-499988J17D01*
G01*
X133072444Y-143681438D02*
G75*
G03*
X132718883Y-143535000I-353544J-353562D01*
G01*
%TO.N,Net-(RN1-R1)*%
X131063553Y-164046447D02*
X129920000Y-165190000D01*
X145822893Y-163900000D02*
X131417107Y-163900000D01*
X149980000Y-158950000D02*
X149980000Y-159742893D01*
X149833553Y-160096447D02*
X146176446Y-163753554D01*
X145822893Y-163899995D02*
G75*
G03*
X146176446Y-163753554I7J499995D01*
G01*
X149833556Y-160096450D02*
G75*
G03*
X149980000Y-159742893I-353556J353550D01*
G01*
X131417107Y-163900005D02*
G75*
G03*
X131063553Y-164046447I-7J-499995D01*
G01*
%TO.N,Net-(RN2-R2)*%
X79980000Y-127170000D02*
X98452893Y-127170000D01*
X117436447Y-128696447D02*
X122300000Y-133560000D01*
X98806447Y-127316447D02*
X99893554Y-128403554D01*
X100247107Y-128550000D02*
X117082893Y-128550000D01*
X117436450Y-128696444D02*
G75*
G03*
X117082893Y-128550000I-353550J-353556D01*
G01*
X98806450Y-127316444D02*
G75*
G03*
X98452893Y-127170000I-353550J-353556D01*
G01*
X99893551Y-128403557D02*
G75*
G03*
X100247107Y-128550000I353549J353557D01*
G01*
%TO.N,Net-(RN2-R3)*%
X93970000Y-124640000D02*
X92165000Y-126445000D01*
X96510000Y-124640000D02*
X93970000Y-124640000D01*
X77460000Y-126430000D02*
X91972893Y-126430000D01*
X92326447Y-126283553D02*
X93970000Y-124640000D01*
X126637107Y-135150000D02*
X144542893Y-135150000D01*
X147440000Y-138047107D02*
X147440000Y-140030000D01*
X144896447Y-135296447D02*
X147293554Y-137693554D01*
X124840000Y-133560000D02*
X126283554Y-135003554D01*
X126283551Y-135003557D02*
G75*
G03*
X126637107Y-135150000I353549J353557D01*
G01*
X147439995Y-138047107D02*
G75*
G03*
X147293554Y-137693554I-499995J7D01*
G01*
X144896450Y-135296444D02*
G75*
G03*
X144542893Y-135150000I-353550J-353556D01*
G01*
X91972893Y-126429995D02*
G75*
G03*
X92326447Y-126283553I7J499995D01*
G01*
%TO.N,Net-(RN3-R2)*%
X96686447Y-153743553D02*
X98240000Y-152190000D01*
X60360000Y-153890000D02*
X96332893Y-153890000D01*
X96332893Y-153889995D02*
G75*
G03*
X96686447Y-153743553I7J499995D01*
G01*
%TO.N,Net-(RN3-R3)*%
X82353553Y-166051447D02*
X82056446Y-166348554D01*
X93967893Y-165905000D02*
X82707107Y-165905000D01*
X95700000Y-167430000D02*
X94321446Y-166051446D01*
X81910000Y-166702107D02*
X81910000Y-168022893D01*
X80972893Y-168960000D02*
X58980000Y-168960000D01*
X81763553Y-168376447D02*
X81326446Y-168813554D01*
X82056443Y-166348551D02*
G75*
G03*
X81910000Y-166702107I353557J-353549D01*
G01*
X80972893Y-168959995D02*
G75*
G03*
X81326446Y-168813554I7J499995D01*
G01*
X81763556Y-168376450D02*
G75*
G03*
X81910000Y-168022893I-353556J353550D01*
G01*
X82707107Y-165905005D02*
G75*
G03*
X82353553Y-166051447I-7J-499995D01*
G01*
X94321449Y-166051443D02*
G75*
G03*
X93967893Y-165905000I-353549J-353557D01*
G01*
%TO.N,Net-(U1-Pad12)*%
X149980000Y-138087107D02*
X149980000Y-140030000D01*
X122300000Y-137440000D02*
X122300000Y-136667107D01*
X122446447Y-136313553D02*
X123503554Y-135256446D01*
X123650000Y-134902893D02*
X123650000Y-133366116D01*
X123796447Y-133012562D02*
X124462563Y-132346446D01*
X124816116Y-132200000D02*
X132492893Y-132200000D01*
X135277107Y-134570000D02*
X146462893Y-134570000D01*
X132846447Y-132346447D02*
X134923554Y-134423554D01*
X146816447Y-134716447D02*
X149833554Y-137733554D01*
X134923551Y-134423557D02*
G75*
G03*
X135277107Y-134570000I353549J353557D01*
G01*
X123796439Y-133012554D02*
G75*
G03*
X123650000Y-133366116I353561J-353546D01*
G01*
X124816116Y-132200012D02*
G75*
G03*
X124462564Y-132346447I-16J-499988D01*
G01*
X149979995Y-138087107D02*
G75*
G03*
X149833554Y-137733554I-499995J7D01*
G01*
X123503557Y-135256449D02*
G75*
G03*
X123650000Y-134902893I-353557J353549D01*
G01*
X132846450Y-132346444D02*
G75*
G03*
X132492893Y-132200000I-353550J-353556D01*
G01*
X122446444Y-136313550D02*
G75*
G03*
X122300000Y-136667107I353556J-353550D01*
G01*
X146816450Y-134716444D02*
G75*
G03*
X146462893Y-134570000I-353550J-353556D01*
G01*
%TO.N,Net-(U1-Pad3)*%
X149980000Y-145687107D02*
X149980000Y-147650000D01*
X146170000Y-138077107D02*
X146170000Y-141462893D01*
X124840000Y-137440000D02*
X126413554Y-135866446D01*
X146316447Y-141816447D02*
X149833554Y-145333554D01*
X144166447Y-135866447D02*
X146023554Y-137723554D01*
X126767107Y-135720000D02*
X143812893Y-135720000D01*
X149979995Y-145687107D02*
G75*
G03*
X149833554Y-145333554I-499995J7D01*
G01*
X146169995Y-138077107D02*
G75*
G03*
X146023554Y-137723554I-499995J7D01*
G01*
X146170005Y-141462893D02*
G75*
G03*
X146316447Y-141816447I499995J-7D01*
G01*
X126767107Y-135720005D02*
G75*
G03*
X126413554Y-135866446I-7J-499995D01*
G01*
X144166450Y-135866444D02*
G75*
G03*
X143812893Y-135720000I-353550J-353556D01*
G01*
%TD*%
M02*
