M48
; DRILL file {KiCad 7.0.9} date Sat Nov 18 14:26:54 2023
; FORMAT={-:-/ absolute / inch / decimal}
; #@! TF.CreationDate,2023-11-18T14:26:54+01:00
; #@! TF.GenerationSoftware,Kicad,Pcbnew,7.0.9
; #@! TF.FileFunction,MixedPlating,1,2
FMAT,2
INCH
; #@! TA.AperFunction,Plated,PTH,ViaDrill
T1C0.0118
; #@! TA.AperFunction,Plated,PTH,ViaDrill
T2C0.0157
; #@! TA.AperFunction,Plated,PTH,ViaDrill
T3C0.0236
; #@! TA.AperFunction,Plated,PTH,ViaDrill
T4C0.0315
; #@! TA.AperFunction,Plated,PTH,ComponentDrill
T5C0.0315
; #@! TA.AperFunction,Plated,PTH,ComponentDrill
T6C0.0394
%
G90
G05
T1
X2.45Y-7.4929
X2.478Y-7.4677
X2.5028Y-7.5181
X2.5273Y-7.4425
X2.5531Y-7.5433
X2.5777Y-7.4173
X2.585Y-7.5799
X2.6744Y-7.6043
T2
X2.322Y-6.652
X2.3764Y-6.0587
X3.0177Y-6.1756
X3.0496Y-4.9776
X3.0677Y-6.9516
X3.1488Y-5.0067
X3.2177Y-6.3425
X3.2488Y-5.0358
X3.2677Y-6.1366
X3.2677Y-6.922
X3.3177Y-6.314
X3.3677Y-6.2094
X3.3677Y-6.9811
X3.4161Y-6.4004
X3.4677Y-6.2287
X3.4677Y-7.0106
X3.5177Y-6.4287
X3.5677Y-6.7713
X3.6185Y-6.4591
X3.6677Y-6.7008
X3.7177Y-6.6705
X3.8177Y-6.7293
T3
X4.6996Y-4.7236
T4
X5.4587Y-5.2177
X5.4587Y-5.5125
X5.4587Y-6.5744
T5
X2.322Y-5.0327
X2.422Y-5.0327
X2.4677Y-5.161
X2.4677Y-5.761
X2.4701Y-6.9681
X2.4862Y-3.9882
X2.4862Y-4.2882
X2.522Y-5.0327
X2.5677Y-5.161
X2.5677Y-5.761
X2.5862Y-3.9882
X2.5862Y-4.2882
X2.622Y-5.0327
X2.6669Y-6.9681
X2.6669Y-7.0941
X2.6669Y-7.3941
X2.6677Y-5.161
X2.6677Y-5.761
X2.6996Y-4.4898
X2.6996Y-4.6071
X2.6996Y-4.9071
X2.7669Y-7.0941
X2.7669Y-7.3941
X2.7677Y-5.161
X2.7677Y-5.761
X2.7996Y-4.6071
X2.7996Y-4.9071
X2.8669Y-7.0941
X2.8669Y-7.3941
X2.8677Y-5.161
X2.8677Y-5.761
X2.8965Y-4.4898
X2.8996Y-4.6071
X2.8996Y-4.9071
X2.9669Y-7.0941
X2.9669Y-7.3941
X2.9677Y-5.161
X2.9677Y-5.761
X2.9996Y-4.6071
X2.9996Y-4.9071
X3.0669Y-7.0941
X3.0669Y-7.3941
X3.0677Y-5.161
X3.0677Y-5.761
X3.0996Y-4.6071
X3.0996Y-4.9071
X3.1669Y-7.0941
X3.1669Y-7.3941
X3.1677Y-5.161
X3.1677Y-5.761
X3.1996Y-4.6071
X3.1996Y-4.9071
X3.2669Y-7.0941
X3.2669Y-7.3941
X3.2677Y-5.161
X3.2677Y-5.761
X3.2996Y-4.6071
X3.2996Y-4.9071
X3.3028Y-3.5496
X3.3028Y-3.8496
X3.3669Y-7.0941
X3.3669Y-7.3941
X3.3677Y-5.161
X3.3677Y-5.761
X3.3996Y-4.6071
X3.3996Y-4.9071
X3.4669Y-7.0941
X3.4669Y-7.3941
X3.4677Y-5.161
X3.4677Y-5.761
X3.5669Y-7.0941
X3.5669Y-7.3941
X3.5677Y-5.161
X3.5677Y-5.761
X3.6012Y-3.5496
X3.6012Y-3.8496
X3.6677Y-5.161
X3.6677Y-5.761
X3.6996Y-4.4898
X3.6996Y-4.6071
X3.6996Y-4.9071
X3.7677Y-5.161
X3.7677Y-5.761
X3.7917Y-7.0941
X3.7917Y-7.2909
X3.7996Y-4.6071
X3.7996Y-4.9071
X3.8677Y-5.161
X3.8677Y-5.761
X3.8965Y-4.4898
X3.8996Y-3.5496
X3.8996Y-3.8496
X3.8996Y-4.6071
X3.8996Y-4.9071
X3.915Y-7.0941
X3.915Y-7.3941
X3.9677Y-5.161
X3.9677Y-5.761
X3.9677Y-6.8244
X3.9996Y-3.5496
X3.9996Y-3.8496
X3.9996Y-4.6071
X3.9996Y-4.9071
X4.015Y-7.0941
X4.015Y-7.3941
X4.0878Y-5.5362
X4.0878Y-5.7331
X4.0996Y-3.5496
X4.0996Y-3.8496
X4.0996Y-4.6071
X4.0996Y-4.9071
X4.115Y-7.0941
X4.115Y-7.3941
X4.1646Y-6.8244
X4.1996Y-3.5496
X4.1996Y-3.8496
X4.1996Y-4.6071
X4.1996Y-4.9071
X4.215Y-7.0941
X4.215Y-7.3941
X4.2996Y-3.5496
X4.2996Y-3.8496
X4.2996Y-4.6071
X4.2996Y-4.9071
X4.315Y-7.0941
X4.315Y-7.3941
X4.3996Y-3.5496
X4.3996Y-3.8496
X4.3996Y-4.6071
X4.3996Y-4.9071
X4.415Y-7.0941
X4.415Y-7.3941
X4.4941Y-6.0551
X4.4941Y-6.252
X4.4949Y-5.411
X4.4949Y-5.6079
X4.4949Y-6.6665
X4.4949Y-6.8634
X4.515Y-7.0941
X4.515Y-7.3941
X4.6142Y-6.0551
X4.6142Y-6.3551
X4.615Y-5.2583
X4.615Y-5.411
X4.615Y-5.711
X4.615Y-6.6665
X4.615Y-6.9665
X4.615Y-7.0941
X4.615Y-7.3941
X4.6996Y-3.5496
X4.6996Y-3.8496
X4.6996Y-4.4894
X4.6996Y-4.6071
X4.6996Y-4.9071
X4.7142Y-6.0551
X4.7142Y-6.3551
X4.715Y-5.2583
X4.715Y-5.411
X4.715Y-5.711
X4.715Y-6.6665
X4.715Y-6.9665
X4.715Y-7.0941
X4.715Y-7.3941
X4.7996Y-3.5496
X4.7996Y-3.8496
X4.7996Y-4.6071
X4.7996Y-4.9071
X4.8142Y-6.0551
X4.8142Y-6.3551
X4.815Y-5.2583
X4.815Y-5.411
X4.815Y-5.711
X4.815Y-6.5035
X4.815Y-6.6665
X4.815Y-6.9665
X4.815Y-7.0941
X4.815Y-7.3941
X4.8965Y-4.4894
X4.8996Y-3.5496
X4.8996Y-3.8496
X4.8996Y-4.6071
X4.8996Y-4.9071
X4.9142Y-6.0551
X4.9142Y-6.3551
X4.915Y-5.2583
X4.915Y-5.411
X4.915Y-5.711
X4.915Y-6.5035
X4.915Y-6.6665
X4.915Y-6.9665
X4.9996Y-3.5496
X4.9996Y-3.8496
X4.9996Y-4.6071
X4.9996Y-4.9071
X5.0142Y-6.0551
X5.0142Y-6.3551
X5.015Y-5.2583
X5.015Y-5.411
X5.015Y-5.711
X5.015Y-6.5035
X5.015Y-6.6665
X5.015Y-6.9665
X5.0996Y-3.5496
X5.0996Y-3.8496
X5.0996Y-4.6071
X5.0996Y-4.9071
X5.1142Y-6.0551
X5.1142Y-6.3551
X5.115Y-5.2583
X5.115Y-5.411
X5.115Y-5.711
X5.115Y-6.5035
X5.115Y-6.6665
X5.115Y-6.9665
X5.1996Y-3.5496
X5.1996Y-3.8496
X5.1996Y-4.6071
X5.1996Y-4.9071
X5.2142Y-6.0551
X5.2142Y-6.3551
X5.215Y-5.411
X5.215Y-5.711
X5.215Y-6.5035
X5.215Y-6.6665
X5.215Y-6.9665
X5.2996Y-3.5496
X5.2996Y-3.8496
X5.2996Y-4.6071
X5.2996Y-4.9071
X5.3142Y-6.0551
X5.3142Y-6.3551
X5.3996Y-3.5496
X5.3996Y-3.8496
X5.3996Y-4.6071
X5.3996Y-4.9071
X5.4Y-7.0028
X5.4Y-7.3028
X5.4118Y-6.8394
X5.5Y-7.0028
X5.5Y-7.3028
X5.5846Y-5.513
X5.5846Y-5.7098
X5.7047Y-5.513
X5.7047Y-5.813
X5.7118Y-6.8394
X5.7118Y-7.1807
X5.7118Y-7.3776
X5.8047Y-5.513
X5.8047Y-5.813
X5.8047Y-5.9579
X5.8047Y-6.2579
X5.8102Y-7.1807
X5.9047Y-5.513
X5.9047Y-5.813
X5.9047Y-5.9579
X5.9047Y-6.2579
X5.9087Y-7.3776
X6.0047Y-5.513
X6.0047Y-5.813
X6.0047Y-5.9579
X6.0047Y-6.2579
X6.0091Y-7.0776
X6.0091Y-7.3776
X6.1047Y-5.513
X6.1047Y-5.813
X6.1047Y-5.9579
X6.1047Y-6.2579
X6.2047Y-5.513
X6.2047Y-5.813
X6.2047Y-5.9579
X6.2047Y-6.2579
X6.3047Y-5.513
X6.3047Y-5.813
T6
X2.4677Y-5.9917
X2.4677Y-6.5917
X2.5677Y-5.9917
X2.5677Y-6.5917
X2.6677Y-5.9917
X2.6677Y-6.5917
X2.7677Y-5.9917
X2.7677Y-6.5917
X2.8677Y-5.9917
X2.8677Y-6.5917
X2.9677Y-5.9917
X2.9677Y-6.5917
X3.0677Y-5.9917
X3.0677Y-6.5917
X3.1677Y-5.9917
X3.1677Y-6.5917
X3.2677Y-5.9917
X3.2677Y-6.5917
X3.3677Y-5.9917
X3.3677Y-6.5917
X3.4677Y-5.9917
X3.4677Y-6.5917
X3.5677Y-5.9917
X3.5677Y-6.5917
X3.6677Y-5.9917
X3.6677Y-6.5917
X3.7677Y-5.9917
X3.7677Y-6.5917
X3.8677Y-5.9917
X3.8677Y-6.5917
X3.8996Y-4.1094
X3.8996Y-4.2094
X3.8996Y-4.3094
X3.9677Y-5.9917
X3.9677Y-6.5917
X3.9996Y-4.1094
X3.9996Y-4.2094
X3.9996Y-4.3094
X4.0996Y-4.1094
X4.0996Y-4.2094
X4.0996Y-4.3094
X4.1996Y-4.1094
X4.1996Y-4.2094
X4.1996Y-4.3094
X4.2996Y-4.1094
X4.2996Y-4.2094
X4.2996Y-4.3094
X4.3996Y-4.1094
X4.3996Y-4.2094
X4.3996Y-4.3094
X4.6996Y-4.1094
X4.6996Y-4.2094
X4.6996Y-4.3094
X4.7996Y-4.1094
X4.7996Y-4.2094
X4.7996Y-4.3094
X4.8996Y-4.1094
X4.8996Y-4.2094
X4.8996Y-4.3094
X4.9996Y-4.1094
X4.9996Y-4.2094
X4.9996Y-4.3094
X5.0996Y-4.1094
X5.0996Y-4.2094
X5.0996Y-4.3094
X5.1996Y-4.1094
X5.1996Y-4.2094
X5.1996Y-4.3094
X5.2996Y-4.1094
X5.2996Y-4.2094
X5.2996Y-4.3094
X5.3996Y-4.1094
X5.3996Y-4.2094
X5.3996Y-4.3094
X5.3996Y-7.4217
X5.3996Y-7.5217
X5.4996Y-7.4217
X5.4996Y-7.5217
T0
M30
